<svg aria-hidden="true" style="position: absolute; width: 0; height: 0; overflow: hidden;" version="1.1" xmlns="http://www.w3.org/2000/svg" xmlns:xlink="http://www.w3.org/1999/xlink">
<defs>
<symbol id="icon-company-tag-line" viewBox="0 0 32 32">
<path d="M16.128 15.218c-0.134-0.178-0.198-0.389-0.183-0.6v-0.87c0-0.267 0.061-0.47 0.182-0.608s0.329-0.208 0.624-0.207c0.277 0 0.473 0.059 0.59 0.177 0.127 0.151 0.188 0.335 0.174 0.521v0.205h-0.495v-0.207c0.002-0.068-0.003-0.136-0.014-0.203-0.007-0.046-0.032-0.088-0.071-0.12-0.051-0.035-0.115-0.051-0.179-0.047-0.068-0.004-0.135 0.013-0.189 0.050-0.043 0.036-0.072 0.082-0.082 0.133-0.014 0.071-0.021 0.143-0.019 0.215v1.056c-0.008 0.102 0.014 0.204 0.064 0.297 0.025 0.031 0.059 0.056 0.099 0.072s0.084 0.021 0.128 0.017c0.063 0.005 0.126-0.013 0.175-0.048 0.040-0.035 0.066-0.080 0.074-0.128 0.012-0.070 0.017-0.141 0.015-0.212v-0.214h0.495v0.196c0.014 0.194-0.046 0.386-0.171 0.547-0.114 0.129-0.308 0.194-0.593 0.194s-0.5-0.069-0.623-0.213z"></path>
<path d="M18.191 15.226c-0.125-0.136-0.188-0.333-0.188-0.594v-0.916c0-0.259 0.063-0.454 0.188-0.587s0.334-0.199 0.628-0.198c0.291 0 0.499 0.066 0.625 0.198s0.189 0.329 0.189 0.587v0.916c0 0.259-0.064 0.457-0.191 0.593s-0.334 0.205-0.623 0.205c-0.288 0-0.502-0.069-0.628-0.204zM19.049 15.007c0.045-0.085 0.065-0.178 0.059-0.271v-1.121c0.006-0.091-0.014-0.182-0.058-0.266-0.025-0.032-0.060-0.057-0.101-0.073s-0.086-0.021-0.131-0.016c-0.044-0.005-0.090 0-0.131 0.016s-0.076 0.041-0.102 0.073c-0.045 0.083-0.066 0.174-0.059 0.266v1.126c-0.006 0.093 0.014 0.186 0.059 0.271 0.029 0.029 0.064 0.051 0.104 0.067s0.083 0.024 0.127 0.024c0.044 0 0.087-0.008 0.127-0.024s0.076-0.039 0.104-0.067v-0.005z"></path>
<path d="M20.227 12.958h0.533l0.401 1.689 0.41-1.689h0.519l0.052 2.438h-0.384l-0.041-1.695-0.396 1.695h-0.308l-0.41-1.701-0.038 1.701h-0.388l0.048-2.438z"></path>
<path d="M22.741 12.958h0.831c0.479 0 0.718 0.231 0.718 0.692 0 0.442-0.252 0.663-0.756 0.662h-0.283v1.084h-0.513l0.003-2.438zM23.451 14c0.051 0.006 0.102 0.002 0.151-0.012s0.093-0.036 0.131-0.065c0.059-0.082 0.085-0.179 0.074-0.275 0.003-0.074-0.006-0.149-0.025-0.221-0.007-0.024-0.020-0.047-0.038-0.067s-0.040-0.037-0.065-0.049c-0.071-0.029-0.15-0.043-0.229-0.039h-0.199v0.729h0.199z"></path>
<path d="M25.029 12.958h0.551l0.565 2.438h-0.478l-0.112-0.562h-0.491l-0.115 0.562h-0.485l0.565-2.438zM25.5 14.552l-0.192-1.023-0.192 1.023h0.384z"></path>
<path d="M26.601 12.958h0.359l0.687 1.391v-1.391h0.426v2.438h-0.342l-0.691-1.452v1.452h-0.44l0.001-2.438z"></path>
<path d="M29.070 14.467l-0.571-1.505h0.481l0.349 0.967 0.327-0.967h0.471l-0.564 1.505v0.93h-0.492v-0.93z"></path>
<path d="M16.92 16.462v0.128h-0.418v0.991h-0.175v-0.991h-0.42v-0.128h1.014z"></path>
<path d="M18.232 17.581h-0.135c-0.014 0.001-0.027-0.003-0.038-0.011-0.010-0.006-0.018-0.015-0.023-0.026l-0.121-0.266h-0.58l-0.121 0.266c-0.003 0.011-0.010 0.021-0.018 0.030-0.011 0.007-0.024 0.011-0.038 0.011h-0.135l0.513-1.118h0.178l0.519 1.114zM17.383 17.166h0.484l-0.205-0.455c-0.015-0.034-0.028-0.070-0.038-0.105-0.007 0.021-0.013 0.042-0.019 0.059l-0.018 0.047-0.203 0.454z"></path>
<path d="M19.116 17.471c0.032 0.001 0.064 0.001 0.096 0 0.028-0.002 0.055-0.007 0.082-0.013 0.025-0.005 0.050-0.012 0.074-0.020 0.023-0.008 0.045-0.018 0.069-0.027v-0.252h-0.205c-0.005 0-0.010-0-0.015-0.002s-0.009-0.004-0.013-0.007c-0.003-0.003-0.006-0.006-0.008-0.009s-0.003-0.007-0.002-0.011v-0.086h0.398v0.429c-0.032 0.020-0.067 0.038-0.103 0.053s-0.075 0.028-0.114 0.038c-0.042 0.011-0.085 0.018-0.128 0.023-0.050 0.005-0.1 0.007-0.15 0.007-0.088 0.001-0.176-0.013-0.258-0.042-0.077-0.027-0.147-0.066-0.205-0.117-0.057-0.051-0.102-0.111-0.132-0.177-0.032-0.074-0.048-0.153-0.047-0.232-0.001-0.080 0.015-0.159 0.046-0.234 0.029-0.066 0.075-0.127 0.132-0.177s0.128-0.090 0.205-0.116c0.088-0.029 0.181-0.043 0.275-0.042 0.048-0 0.095 0.003 0.143 0.010 0.042 0.006 0.083 0.015 0.122 0.028 0.036 0.012 0.070 0.026 0.103 0.044s0.061 0.037 0.089 0.058l-0.049 0.069c-0.004 0.006-0.010 0.012-0.017 0.015s-0.015 0.006-0.023 0.006c-0.011-0-0.022-0.003-0.032-0.009-0.015-0.007-0.032-0.016-0.050-0.027-0.022-0.012-0.045-0.022-0.069-0.030-0.031-0.011-0.062-0.019-0.094-0.025-0.043-0.007-0.087-0.010-0.13-0.010-0.068-0.001-0.135 0.010-0.198 0.031-0.057 0.020-0.109 0.050-0.151 0.089-0.043 0.040-0.075 0.088-0.095 0.139-0.046 0.121-0.046 0.252 0 0.373 0.022 0.053 0.057 0.101 0.103 0.141 0.042 0.038 0.093 0.069 0.15 0.089 0.065 0.019 0.134 0.027 0.203 0.022z"></path>
<path d="M20.751 17.453h0.56v0.128h-0.731v-1.118h0.175l-0.004 0.991z"></path>
<path d="M21.893 17.581h-0.175v-1.118h0.175v1.118z"></path>
<path d="M22.545 16.468c0.010 0.005 0.020 0.012 0.027 0.020l0.75 0.843c-0.001-0.013-0.001-0.027 0-0.040 0-0.012 0-0.025 0-0.036v-0.797h0.153v1.123h-0.088c-0.013 0.001-0.026-0.001-0.038-0.006-0.011-0.006-0.020-0.013-0.028-0.021l-0.749-0.842c0 0.013 0 0.026 0 0.038s0 0.024 0 0.035v0.797h-0.147v-1.118h0.091c0.010 0 0.020 0.002 0.029 0.005z"></path>
<path d="M24.766 16.462v0.123h-0.622v0.369h0.504v0.119h-0.504v0.382h0.622v0.123h-0.802v-1.116h0.802z"></path>
<path d="M6.388 9.556l7.787 1.909v6.689l-7.787-1.908v-6.69zM5.889 8.986v7.585l8.785 2.154v-7.584l-8.785-2.155z"></path>
<path d="M10.597 22.247l-8.786-2.156v-7.584l8.786 2.155v7.585z"></path>
<path d="M6.035 9.47l7.686 1.885-3.268 2.823-7.687-1.886 3.27-2.822zM5.889 8.986l-4.078 3.52 8.786 2.155 4.077-3.52-8.785-2.155z"></path>
<path d="M11.092 21.82l3.582-3.094-3.582-0.879v3.973z"></path>
</symbol>
<symbol id="icon-brand" viewBox="0 0 32 32">
<path d="M8.078 20.448c0.074 0.083 0.113 0.188 0.111 0.295 0.004 0.070-0.010 0.14-0.039 0.204s-0.075 0.122-0.132 0.168c-0.143 0.099-0.32 0.147-0.499 0.136h-0.877v-1.869h0.859c0.17-0.010 0.338 0.034 0.476 0.124 0.055 0.042 0.099 0.096 0.128 0.157s0.042 0.127 0.038 0.193c0.005 0.103-0.030 0.204-0.1 0.286-0.067 0.074-0.159 0.126-0.261 0.146 0.116 0.019 0.221 0.076 0.296 0.16zM7.049 20.166h0.367c0.083 0.006 0.166-0.016 0.233-0.062 0.028-0.023 0.049-0.051 0.063-0.083s0.019-0.066 0.016-0.1c0.003-0.034-0.003-0.068-0.016-0.099s-0.034-0.060-0.061-0.083c-0.069-0.047-0.154-0.069-0.24-0.063h-0.361v0.49zM7.686 20.883c0.029-0.023 0.053-0.053 0.068-0.086s0.022-0.069 0.019-0.104c0.002-0.036-0.005-0.072-0.020-0.105s-0.039-0.063-0.069-0.086c-0.072-0.049-0.16-0.073-0.249-0.068h-0.385v0.514h0.39c0.088 0.005 0.175-0.018 0.246-0.065z"></path>
<path d="M9.833 21.252l-0.478-0.73h-0.18v0.73h-0.411v-1.869h0.778c0.196-0.013 0.39 0.044 0.542 0.159 0.109 0.101 0.174 0.235 0.185 0.377s-0.034 0.282-0.127 0.396c-0.096 0.101-0.227 0.168-0.371 0.19l0.509 0.747h-0.447zM9.176 20.267h0.336c0.233 0 0.35-0.094 0.35-0.283 0.002-0.039-0.004-0.077-0.019-0.113s-0.038-0.069-0.067-0.097c-0.074-0.056-0.169-0.083-0.264-0.076h-0.34l0.004 0.569z"></path>
<path d="M12.079 20.876h-0.819l-0.145 0.376h-0.431l0.752-1.848h0.466l0.749 1.848h-0.431l-0.142-0.376zM11.969 20.593l-0.299-0.789-0.299 0.789h0.598z"></path>
<path d="M14.89 21.252h-0.408l-0.914-1.271v1.271h-0.407v-1.869h0.407l0.914 1.278v-1.278h0.408v1.869z"></path>
<path d="M17.217 20.804c-0.084 0.141-0.213 0.256-0.369 0.33-0.178 0.082-0.375 0.123-0.573 0.118h-0.726v-1.869h0.726c0.198-0.005 0.395 0.035 0.573 0.115 0.156 0.072 0.285 0.186 0.369 0.326 0.084 0.152 0.128 0.32 0.128 0.49s-0.044 0.338-0.128 0.49zM16.751 20.76c0.116-0.124 0.18-0.282 0.18-0.446s-0.064-0.322-0.18-0.446c-0.141-0.112-0.324-0.17-0.511-0.159h-0.283v1.21h0.283c0.186 0.011 0.37-0.046 0.511-0.159z"></path>
<path d="M12.334 8.986c0 0 5.264 1.82 5.153 4.453v4.454c0 0-5.261-1.821-5.151-4.454l-0.002-4.453z"></path>
<path d="M22.177 16.851c0.994-0.626 2.144-1.015 3.345-1.129v-1.394c-1.383 0.488-2.557 1.373-3.345 2.523z"></path>
<path d="M21.579 17.271c0.814-1.5 2.225-2.658 3.942-3.235v-4.018c0 0-7.497 2.592-7.339 6.342v6.341c0 0 0.334-0.116 0.86-0.333 0-0.203 0-0.407 0.024-0.613 0.155-1.741 1.059-3.354 2.513-4.485z"></path>
<path d="M20.866 19.627c0.039-0.44 0.127-0.875 0.262-1.298-0.905 0.977-1.454 2.189-1.568 3.465-0.011 0.12-0.017 0.241-0.020 0.365 0.426-0.187 0.921-0.421 1.442-0.696-0.133-0.604-0.172-1.222-0.117-1.836z"></path>
<path d="M21.165 19.649c-0.050 0.556-0.019 1.115 0.093 1.663 2.048-1.122 4.35-2.856 4.261-4.952v-0.183c-1.463 0.15-2.833 0.736-3.897 1.667-0.249 0.577-0.403 1.185-0.457 1.804z"></path>
</symbol>
<symbol id="icon-foster-peters" viewBox="0 0 57 32">
<path d="M12.878 11.255h-0.002c-1.279 0-2.316 0.921-2.316 2.058v0.001c0 1.137 1.037 2.058 2.316 2.058h0.002c1.279 0 2.316-0.921 2.316-2.058v-0.001c0-1.137-1.037-2.058-2.316-2.058z"></path>
<path d="M29.971 10.597c-0.004-1.579-0.711-3.092-1.967-4.208s-2.958-1.745-4.735-1.749v0c-1.777 0.003-3.48 0.631-4.737 1.748s-1.964 2.63-1.968 4.209v8.706c0 0 13.405-1.327 13.406-8.704v-0.001z"></path>
<path d="M5.867 22.16c0.003 1.098 0.496 2.151 1.369 2.928s2.058 1.215 3.294 1.218c1.236-0.003 2.42-0.441 3.294-1.218s1.366-1.829 1.37-2.927v-6.057c0 0-9.327 0.924-9.327 6.056zM10.53 23.245c-0.242 0-0.478-0.064-0.678-0.183s-0.357-0.289-0.45-0.487c-0.092-0.198-0.117-0.417-0.069-0.627s0.163-0.404 0.334-0.556c0.171-0.152 0.388-0.255 0.625-0.297s0.482-0.020 0.706 0.062c0.223 0.082 0.414 0.221 0.548 0.4s0.206 0.388 0.206 0.603c0.001 0.143-0.031 0.284-0.092 0.417s-0.151 0.252-0.264 0.353c-0.114 0.101-0.248 0.182-0.397 0.236s-0.308 0.083-0.468 0.083v-0.004z"></path>
<path d="M19.956 22.647h-0.9v0.93h-0.469v-2.275h1.481v0.38h-1.013v0.588h0.9v0.378zM22.209 22.491c0 0.224-0.040 0.42-0.119 0.589s-0.193 0.299-0.341 0.391c-0.147 0.092-0.316 0.137-0.506 0.137-0.189 0-0.357-0.045-0.505-0.136s-0.262-0.22-0.344-0.387c-0.081-0.169-0.122-0.363-0.123-0.581v-0.112c0-0.224 0.040-0.421 0.12-0.591 0.081-0.171 0.195-0.302 0.342-0.392 0.148-0.092 0.317-0.137 0.506-0.137s0.358 0.046 0.505 0.137c0.148 0.091 0.262 0.221 0.342 0.392 0.081 0.17 0.122 0.366 0.122 0.589v0.102zM21.734 22.388c0-0.238-0.043-0.42-0.128-0.544s-0.207-0.186-0.366-0.186c-0.157 0-0.279 0.061-0.364 0.184-0.085 0.122-0.129 0.301-0.13 0.538v0.111c0 0.232 0.043 0.412 0.128 0.541s0.208 0.192 0.369 0.192c0.157 0 0.278-0.061 0.363-0.184 0.084-0.124 0.127-0.304 0.128-0.541v-0.111zM23.73 22.98c0-0.089-0.031-0.156-0.094-0.203-0.062-0.048-0.175-0.098-0.337-0.15-0.163-0.053-0.291-0.105-0.386-0.156-0.258-0.14-0.388-0.328-0.388-0.564 0-0.123 0.034-0.232 0.103-0.328 0.070-0.097 0.169-0.172 0.298-0.227 0.13-0.054 0.276-0.081 0.438-0.081 0.163 0 0.307 0.030 0.434 0.089 0.127 0.058 0.226 0.141 0.295 0.248 0.071 0.107 0.106 0.229 0.106 0.366h-0.469c0-0.104-0.033-0.185-0.098-0.242s-0.158-0.087-0.277-0.087c-0.115 0-0.204 0.024-0.267 0.073-0.064 0.048-0.095 0.111-0.095 0.191 0 0.074 0.037 0.136 0.111 0.186 0.075 0.050 0.185 0.097 0.33 0.141 0.267 0.080 0.461 0.18 0.583 0.298s0.183 0.267 0.183 0.444c0 0.197-0.075 0.352-0.223 0.464-0.149 0.111-0.349 0.167-0.602 0.167-0.175 0-0.334-0.032-0.478-0.095-0.144-0.065-0.254-0.153-0.33-0.264-0.075-0.111-0.112-0.241-0.112-0.388h0.47c0 0.251 0.15 0.377 0.45 0.377 0.111 0 0.198-0.022 0.261-0.067 0.063-0.046 0.094-0.109 0.094-0.191zM26.231 21.682h-0.697v1.895h-0.469v-1.895h-0.688v-0.38h1.853v0.38zM27.869 22.591h-0.9v0.609h1.056v0.377h-1.525v-2.275h1.522v0.38h-1.053v0.542h0.9v0.367zM29.142 22.744h-0.373v0.833h-0.469v-2.275h0.845c0.269 0 0.476 0.060 0.622 0.18s0.219 0.289 0.219 0.508c0 0.155-0.034 0.285-0.102 0.389-0.067 0.103-0.168 0.185-0.305 0.247l0.492 0.93v0.022h-0.503l-0.427-0.833zM28.769 22.365h0.378c0.118 0 0.209-0.030 0.273-0.089 0.065-0.060 0.097-0.143 0.097-0.248 0-0.107-0.031-0.192-0.092-0.253-0.060-0.061-0.154-0.092-0.28-0.092h-0.377v0.683zM31.609 22.775v0.802h-0.469v-2.275h0.888c0.171 0 0.321 0.031 0.45 0.094 0.13 0.063 0.23 0.152 0.3 0.267s0.105 0.245 0.105 0.392c0 0.223-0.077 0.399-0.23 0.528-0.152 0.128-0.363 0.192-0.633 0.192h-0.411zM31.609 22.396h0.419c0.124 0 0.218-0.029 0.283-0.088 0.066-0.058 0.098-0.142 0.098-0.25 0-0.111-0.033-0.202-0.098-0.27s-0.156-0.104-0.272-0.106h-0.43v0.714zM34.575 22.591h-0.9v0.609h1.056v0.377h-1.525v-2.275h1.522v0.38h-1.053v0.542h0.9v0.367zM36.75 21.682h-0.697v1.895h-0.469v-1.895h-0.688v-0.38h1.853v0.38zM38.387 22.591h-0.9v0.609h1.056v0.377h-1.525v-2.275h1.522v0.38h-1.053v0.542h0.9v0.367zM39.661 22.744h-0.373v0.833h-0.469v-2.275h0.845c0.269 0 0.476 0.060 0.622 0.18s0.219 0.289 0.219 0.508c0 0.155-0.034 0.285-0.102 0.389-0.067 0.103-0.168 0.185-0.305 0.247l0.492 0.93v0.022h-0.503l-0.427-0.833zM39.287 22.365h0.378c0.118 0 0.209-0.030 0.273-0.089 0.065-0.060 0.097-0.143 0.097-0.248 0-0.107-0.031-0.192-0.092-0.253-0.060-0.061-0.154-0.092-0.28-0.092h-0.377v0.683zM42.042 22.98c0-0.089-0.031-0.156-0.094-0.203-0.063-0.048-0.175-0.098-0.337-0.15-0.163-0.053-0.291-0.105-0.386-0.156-0.258-0.14-0.387-0.328-0.387-0.564 0-0.123 0.034-0.232 0.103-0.328 0.070-0.097 0.169-0.172 0.298-0.227s0.276-0.081 0.438-0.081c0.163 0 0.307 0.030 0.434 0.089 0.127 0.058 0.225 0.141 0.295 0.248s0.106 0.229 0.106 0.366h-0.469c0-0.104-0.033-0.185-0.098-0.242s-0.158-0.087-0.277-0.087c-0.115 0-0.204 0.024-0.267 0.073-0.064 0.048-0.095 0.111-0.095 0.191 0 0.074 0.037 0.136 0.111 0.186 0.075 0.050 0.185 0.097 0.33 0.141 0.267 0.080 0.461 0.18 0.583 0.298s0.183 0.267 0.183 0.444c0 0.197-0.075 0.352-0.223 0.464-0.149 0.111-0.349 0.167-0.602 0.167-0.175 0-0.334-0.032-0.478-0.095-0.144-0.065-0.254-0.153-0.33-0.264s-0.113-0.241-0.113-0.388h0.47c0 0.251 0.15 0.377 0.45 0.377 0.111 0 0.198-0.022 0.261-0.067 0.063-0.046 0.094-0.109 0.094-0.191z"></path>
</symbol>
<symbol id="icon-company" viewBox="0 0 32 32">
<path d="M10.991 21.766c0.005 0 0.010 0.001 0.014 0.003s0.008 0.004 0.012 0.007l0.066 0.063c-0.051 0.051-0.114 0.092-0.185 0.119-0.083 0.030-0.173 0.045-0.263 0.043-0.085 0.002-0.169-0.012-0.247-0.040-0.071-0.026-0.134-0.064-0.186-0.113-0.053-0.051-0.094-0.11-0.12-0.175-0.029-0.072-0.043-0.148-0.042-0.224-0.001-0.077 0.014-0.153 0.045-0.225 0.029-0.065 0.072-0.124 0.128-0.175 0.056-0.049 0.123-0.088 0.198-0.114 0.081-0.027 0.167-0.041 0.254-0.040 0.081-0.002 0.161 0.011 0.236 0.036 0.065 0.025 0.125 0.059 0.177 0.101l-0.055 0.067c-0.004 0.005-0.009 0.009-0.014 0.012-0.007 0.004-0.014 0.006-0.022 0.005s-0.017-0.003-0.024-0.007l-0.030-0.018-0.041-0.023c-0.018-0.008-0.036-0.016-0.055-0.022-0.024-0.008-0.049-0.014-0.075-0.018-0.032-0.005-0.065-0.008-0.098-0.007-0.063-0.001-0.125 0.009-0.183 0.030-0.054 0.019-0.103 0.048-0.143 0.084-0.041 0.039-0.073 0.085-0.093 0.134-0.023 0.057-0.035 0.117-0.034 0.177-0.001 0.061 0.010 0.122 0.034 0.18 0.020 0.049 0.051 0.095 0.091 0.134 0.038 0.036 0.084 0.065 0.137 0.083 0.054 0.019 0.111 0.029 0.17 0.029 0.034 0 0.067-0.001 0.1-0.006 0.054-0.006 0.106-0.022 0.152-0.048 0.023-0.013 0.045-0.028 0.065-0.044 0.008-0.007 0.020-0.011 0.031-0.011z"></path>
<path d="M12.892 21.45c0.001 0.076-0.014 0.151-0.044 0.222-0.027 0.064-0.069 0.123-0.124 0.173s-0.121 0.088-0.195 0.113c-0.161 0.053-0.339 0.053-0.5 0-0.073-0.026-0.139-0.065-0.193-0.114-0.055-0.050-0.097-0.11-0.125-0.174-0.059-0.144-0.059-0.302 0-0.446 0.028-0.065 0.071-0.125 0.125-0.175 0.055-0.048 0.121-0.085 0.193-0.109 0.161-0.054 0.339-0.054 0.5 0 0.073 0.026 0.139 0.064 0.194 0.114s0.096 0.108 0.124 0.172c0.030 0.072 0.046 0.148 0.044 0.224zM12.719 21.45c0.001-0.061-0.009-0.121-0.031-0.179-0.018-0.049-0.048-0.095-0.088-0.134-0.039-0.037-0.086-0.066-0.139-0.084-0.117-0.039-0.247-0.039-0.364 0-0.053 0.019-0.101 0.048-0.139 0.084-0.040 0.039-0.070 0.084-0.089 0.134-0.042 0.116-0.042 0.241 0 0.358 0.019 0.049 0.049 0.095 0.089 0.134 0.039 0.037 0.086 0.065 0.139 0.084 0.117 0.038 0.246 0.038 0.364 0 0.053-0.019 0.1-0.047 0.139-0.084 0.039-0.039 0.069-0.084 0.088-0.134 0.022-0.058 0.033-0.118 0.031-0.179z"></path>
<path d="M14.189 21.638l0.017 0.040c0.007-0.014 0.012-0.027 0.019-0.040s0.013-0.027 0.021-0.039l0.421-0.664c0.008-0.011 0.016-0.019 0.024-0.021 0.011-0.003 0.023-0.004 0.035-0.004h0.124v1.081h-0.147v-0.794c0-0.010 0-0.021 0-0.034s-0.001-0.025 0-0.037l-0.423 0.674c-0.005 0.010-0.014 0.019-0.025 0.025s-0.023 0.009-0.036 0.009h-0.024c-0.013 0-0.025-0.003-0.036-0.009s-0.019-0.015-0.025-0.025l-0.435-0.678c0 0.013 0 0.026 0 0.039s0 0.024 0 0.034v0.794h-0.142v-1.078h0.124c0.012-0.001 0.023 0.001 0.035 0.004 0.010 0.004 0.018 0.012 0.023 0.021l0.43 0.665c0.008 0.012 0.016 0.025 0.021 0.039z"></path>
<path d="M15.772 21.584v0.405h-0.165v-1.079h0.367c0.069-0.001 0.138 0.007 0.205 0.024 0.053 0.013 0.103 0.036 0.145 0.067 0.037 0.029 0.065 0.065 0.082 0.106 0.019 0.044 0.029 0.091 0.028 0.138 0.001 0.047-0.010 0.094-0.030 0.138-0.020 0.041-0.050 0.078-0.089 0.108-0.042 0.032-0.092 0.057-0.146 0.072-0.064 0.018-0.131 0.026-0.198 0.025l-0.199-0.003zM15.772 21.468h0.199c0.043 0 0.086-0.005 0.128-0.016 0.034-0.010 0.065-0.026 0.092-0.046 0.025-0.020 0.044-0.044 0.056-0.072 0.013-0.029 0.020-0.060 0.020-0.091 0.002-0.030-0.004-0.060-0.017-0.088s-0.032-0.053-0.058-0.074c-0.063-0.043-0.142-0.063-0.221-0.058h-0.199v0.445z"></path>
<path d="M17.984 21.99h-0.13c-0.013 0-0.026-0.003-0.036-0.010-0.009-0.007-0.017-0.015-0.021-0.025l-0.112-0.261h-0.562l-0.116 0.261c-0.004 0.010-0.011 0.018-0.021 0.024-0.010 0.007-0.024 0.011-0.037 0.011h-0.13l0.494-1.081h0.171l0.5 1.081zM17.169 21.589h0.464l-0.196-0.44c-0.015-0.033-0.027-0.067-0.037-0.102l-0.019 0.056c-0.006 0.017-0.012 0.033-0.018 0.046l-0.194 0.439z"></path>
<path d="M18.695 20.915c0.010 0.005 0.018 0.011 0.025 0.019l0.72 0.815c0-0.013 0-0.026 0-0.038s0-0.024 0-0.036v-0.765h0.147v1.081h-0.082c-0.012 0-0.023-0.002-0.034-0.006s-0.019-0.012-0.026-0.020l-0.719-0.814c0.001 0.012 0.001 0.025 0 0.037s0 0.023 0 0.033v0.77h-0.147v-1.081h0.087c0.010-0 0.020 0.001 0.030 0.005z"></path>
<path d="M20.801 21.56v0.429h-0.165v-0.429l-0.455-0.651h0.147c0.013-0.001 0.025 0.003 0.035 0.009 0.009 0.007 0.016 0.015 0.022 0.024l0.285 0.42c0.012 0.018 0.021 0.034 0.030 0.050s0.015 0.031 0.021 0.046l0.021-0.047c0.008-0.017 0.017-0.033 0.028-0.049l0.281-0.423c0.006-0.008 0.013-0.016 0.021-0.023 0.010-0.007 0.022-0.011 0.035-0.011h0.149l-0.456 0.654z"></path>
<path d="M14.108 19.096c0.072 0.008 0.144 0.014 0.217 0.020 1.111-0.432 2.050-1.138 2.701-2.031s0.985-1.933 0.959-2.99l-1.224-1.063c0.249 1.125 0.132 2.288-0.336 3.359s-1.271 2.008-2.317 2.705z"></path>
<path d="M13.671 19.047l0.033 0.006c1.118-0.695 1.971-1.665 2.447-2.786s0.555-2.339 0.226-3.499l-1.743-1.515c0.705 1.245 0.989 2.638 0.818 4.018s-0.788 2.689-1.781 3.775z"></path>
<path d="M19.583 15.344c-0.296 1.161-1.015 2.209-2.051 2.986-0.302 0.228-0.629 0.432-0.975 0.608 0.843-0.215 1.618-0.596 2.266-1.113s1.149-1.156 1.467-1.868l-0.707-0.614z"></path>
<path d="M19.305 15.173l-1.007-0.875c-0.019 0.997-0.346 1.972-0.945 2.822s-1.45 1.546-2.463 2.014h0.005c0.226-0 0.451-0.012 0.676-0.035 0.947-0.336 1.784-0.87 2.435-1.555s1.098-1.5 1.299-2.371z"></path>
<path d="M13.816 10.615l-1.201-1.045c-1.074 0.36-1.997 0.994-2.649 1.818s-1.003 1.8-1.006 2.8v0c0.004 1.105 0.432 2.177 1.216 3.047s1.88 1.487 3.114 1.755c1.101-1.166 1.746-2.607 1.841-4.113s-0.366-2.999-1.315-4.262z"></path>
<path d="M22.080 15.012c-0.004-1.311-0.606-2.567-1.673-3.494s-2.513-1.449-4.022-1.453c-0.697-0.001-1.389 0.111-2.039 0.33l7.353 6.388c0.252-0.565 0.381-1.165 0.38-1.771z"></path>
</symbol>
<symbol id="icon-company-tagline-here" viewBox="0 0 32 32">
<path d="M15.129 8.735h-0.041c-0.063-0.004-0.127-0.005-0.19-0.007v0h-0.137c-0.12 0-0.242 0.003-0.364 0.009-0.009-0.001-0.018-0.001-0.027 0-1.1 0.062-2.178 0.337-3.175 0.81l-0.131 0.063v6.684l0.305-0.104c0.268-0.092 0.554-0.175 0.849-0.252 0.799-0.205 1.619-0.314 2.444-0.325v0.878c-0.109 0.001-0.215 0.004-0.322 0.009h-0.025c-0.635 0.035-1.264 0.131-1.88 0.289-0.78 0.195-1.533 0.489-2.24 0.873v-8.573c0.735-0.428 1.526-0.75 2.35-0.956 0.724-0.187 1.468-0.283 2.215-0.286h0.129c0.154 0.004 0.305 0.011 0.446 0.021 0.372 0.026 0.741 0.085 1.104 0.176v0.864c-0.352-0.082-0.709-0.136-1.069-0.161-0.007-0.001-0.015-0.001-0.022-0.002-0.075-0.006-0.149-0.013-0.219-0.013zM16.65 9.619c0.192 0.015 0.39 0.021 0.591 0.021 0.785-0.003 1.567-0.103 2.328-0.299 0.78-0.196 1.532-0.49 2.239-0.874v8.42c-0.735 0.428-1.526 0.75-2.351 0.956-0.724 0.186-1.468 0.282-2.215 0.285-0.566 0.005-1.13-0.062-1.68-0.198v-8.474c0.13 0.030 0.263 0.058 0.399 0.081 0.223 0.038 0.458 0.065 0.687 0.082zM20.935 9.684l-0.305 0.103c-0.281 0.094-0.564 0.179-0.849 0.254-0.829 0.213-1.682 0.322-2.538 0.325-0.199 0-0.383-0.005-0.56-0.017l-0.244-0.016v6.876l0.209 0.018c0.194 0.017 0.394 0.025 0.596 0.025 0.674-0.003 1.346-0.090 1.999-0.259 0.538-0.135 1.061-0.323 1.562-0.561l0.131-0.063v-6.686z"></path>
<path d="M10.789 20.592c-0.044-0.046-0.097-0.081-0.155-0.105s-0.121-0.035-0.184-0.032c-0.067-0.001-0.134 0.012-0.196 0.037-0.057 0.023-0.109 0.057-0.153 0.101s-0.077 0.096-0.098 0.154c-0.024 0.060-0.036 0.125-0.035 0.19v1.145c-0.003 0.081 0.013 0.161 0.045 0.235 0.027 0.059 0.066 0.111 0.115 0.154 0.046 0.039 0.1 0.066 0.157 0.081 0.056 0.016 0.113 0.024 0.171 0.024 0.064 0.001 0.127-0.013 0.185-0.040 0.057-0.025 0.109-0.061 0.153-0.106 0.043-0.044 0.076-0.097 0.1-0.154s0.037-0.12 0.037-0.183v-0.128h-0.299v0.102c0.001 0.035-0.005 0.070-0.018 0.102-0.010 0.024-0.025 0.046-0.044 0.064-0.019 0.015-0.040 0.026-0.063 0.033-0.020 0.007-0.041 0.010-0.063 0.011-0.027 0.003-0.054-0.001-0.079-0.012s-0.046-0.028-0.062-0.050c-0.028-0.046-0.042-0.099-0.040-0.154v-1.068c-0.002-0.059 0.011-0.118 0.037-0.171 0.016-0.024 0.038-0.043 0.063-0.056s0.055-0.017 0.083-0.013c0.026-0.001 0.051 0.004 0.075 0.016s0.043 0.028 0.059 0.049c0.034 0.044 0.051 0.098 0.050 0.154v0.099h0.296v-0.117c0.001-0.069-0.012-0.137-0.037-0.2-0.022-0.060-0.056-0.115-0.1-0.161z"></path>
<path d="M12.567 20.579c-0.095-0.081-0.216-0.125-0.341-0.126-0.061 0-0.121 0.011-0.179 0.032s-0.112 0.053-0.158 0.094c-0.050 0.045-0.089 0.099-0.116 0.16-0.030 0.070-0.045 0.146-0.044 0.222v1.099c-0.002 0.077 0.013 0.154 0.044 0.225 0.027 0.059 0.067 0.111 0.116 0.154 0.046 0.043 0.1 0.075 0.158 0.097 0.057 0.021 0.118 0.032 0.179 0.032s0.121-0.011 0.179-0.032c0.060-0.022 0.114-0.055 0.162-0.097s0.086-0.095 0.113-0.154c0.031-0.071 0.046-0.148 0.044-0.225v-1.099c0.001-0.076-0.013-0.152-0.044-0.222-0.027-0.061-0.065-0.115-0.113-0.16zM12.427 22.060c0.002 0.029-0.002 0.059-0.012 0.086s-0.027 0.052-0.048 0.073c-0.040 0.033-0.089 0.051-0.141 0.051s-0.101-0.018-0.141-0.051c-0.021-0.020-0.037-0.045-0.048-0.073s-0.014-0.057-0.012-0.086v-1.099c-0.003-0.029 0.002-0.059 0.012-0.086s0.027-0.052 0.048-0.073c0.040-0.033 0.089-0.051 0.141-0.051s0.101 0.018 0.141 0.051c0.021 0.020 0.037 0.045 0.048 0.073s0.014 0.057 0.012 0.086v1.099z"></path>
<path d="M14.903 22.551v-2.080h-0.288l-0.378 1.101h-0.005l-0.381-1.101h-0.285v2.080h0.297v-1.265h0.005l0.291 0.894h0.148l0.293-0.894h0.005v1.265h0.297z"></path>
<path d="M16.591 20.617c-0.046-0.051-0.104-0.090-0.168-0.114-0.070-0.023-0.142-0.034-0.215-0.032h-0.441v2.080h0.296v-0.812h0.153c0.092 0.004 0.184-0.015 0.267-0.057 0.067-0.037 0.124-0.092 0.163-0.159 0.034-0.055 0.057-0.117 0.068-0.181 0.012-0.078 0.017-0.157 0.016-0.236 0.003-0.1-0.007-0.2-0.029-0.297-0.020-0.072-0.057-0.138-0.109-0.191zM16.438 21.251c-0.001 0.038-0.011 0.075-0.027 0.108-0.017 0.032-0.044 0.058-0.076 0.073-0.044 0.020-0.092 0.029-0.14 0.026h-0.135v-0.707h0.153c0.046-0.002 0.092 0.007 0.134 0.026 0.031 0.018 0.055 0.044 0.070 0.077 0.016 0.037 0.025 0.076 0.026 0.116 0 0.044 0 0.090 0 0.138s0.003 0.098 0 0.143h-0.003z"></path>
<path d="M17.995 20.471h-0.243l-0.458 2.080h0.296l0.087-0.447h0.404l0.087 0.447h0.296l-0.47-2.080zM17.721 21.821l0.146-0.754h0.005l0.145 0.754h-0.296z"></path>
<path d="M19.909 21.724h-0.005l-0.448-1.253h-0.285v2.080h0.296v-1.251h0.006l0.453 1.251h0.279v-2.080h-0.296v1.253z"></path>
<path d="M21.72 20.471l-0.238 0.827h-0.006l-0.238-0.827h-0.314l0.407 1.201v0.879h0.296v-0.879l0.407-1.201h-0.314z"></path>
<path d="M9.962 23.138h0.143v0.401h0.097v-0.401h0.142v-0.082h-0.382v0.082z"></path>
<path d="M11.163 23.056l-0.187 0.483h0.103l0.040-0.11h0.192l0.041 0.11h0.105l-0.192-0.483h-0.103zM11.148 23.348l0.066-0.179 0.066 0.179h-0.131z"></path>
<path d="M12.35 23.361h0.112v0.062c-0.033 0.026-0.073 0.040-0.115 0.041-0.019 0.001-0.039-0.003-0.057-0.011s-0.033-0.020-0.046-0.036c-0.026-0.037-0.038-0.081-0.036-0.126 0-0.107 0.047-0.161 0.139-0.161 0.024-0.002 0.049 0.004 0.069 0.018s0.034 0.035 0.040 0.059l0.095-0.018c-0.021-0.094-0.089-0.142-0.205-0.142-0.062-0.002-0.122 0.021-0.169 0.062-0.024 0.024-0.043 0.053-0.055 0.085s-0.017 0.066-0.014 0.101c-0.003 0.066 0.019 0.131 0.062 0.181 0.024 0.024 0.052 0.043 0.084 0.056s0.066 0.017 0.099 0.015c0.076 0.002 0.149-0.025 0.205-0.077v-0.19h-0.209v0.081z"></path>
<path d="M13.562 23.056h-0.098v0.483h0.338v-0.082h-0.241v-0.401z"></path>
<path d="M14.586 23.056h-0.098v0.483h0.098v-0.483z"></path>
<path d="M15.588 23.378l-0.198-0.322h-0.095v0.483h0.091v-0.316l0.194 0.316h0.097v-0.483h-0.089v0.322z"></path>
<path d="M16.494 23.326h0.241v-0.082h-0.241v-0.106h0.259v-0.082h-0.357v0.483h0.367v-0.082h-0.269v-0.131z"></path>
<path d="M18.69 23.246h-0.19v-0.19h-0.097v0.483h0.097v-0.211h0.19v0.211h0.097v-0.483h-0.097v0.19z"></path>
<path d="M19.602 23.326h0.241v-0.082h-0.241v-0.106h0.26v-0.082h-0.357v0.483h0.366v-0.082h-0.269v-0.131z"></path>
<path d="M20.837 23.326c0.084-0.013 0.127-0.058 0.127-0.134 0.002-0.021-0.001-0.041-0.009-0.060s-0.022-0.035-0.038-0.047c-0.044-0.022-0.093-0.032-0.141-0.028h-0.205v0.483h0.097v-0.202h0.019c0.021-0.001 0.041 0.002 0.060 0.011 0.014 0.009 0.026 0.021 0.034 0.035l0.105 0.154h0.116l-0.059-0.094c-0.026-0.047-0.063-0.086-0.107-0.116zM20.739 23.259h-0.072v-0.121h0.076c0.033-0.003 0.067 0.001 0.099 0.012 0.007 0.006 0.013 0.014 0.016 0.023s0.005 0.018 0.005 0.028c-0 0.009-0.003 0.019-0.007 0.027s-0.011 0.016-0.018 0.021c-0.032 0.010-0.065 0.014-0.099 0.012z"></path>
<path d="M21.769 23.326h0.241v-0.082h-0.241v-0.106h0.26v-0.082h-0.357v0.483h0.367v-0.082h-0.269v-0.131z"></path>
</symbol>
<symbol id="icon-yaco" viewBox="0 0 32 32">
<path d="M11.472 9.057l2.116 2.003-3.927-0.002v9.717h10.264v-3.715l2.113 2.001v-10.003h-10.566zM19.832 16.824l-5.998-5.679h5.998v5.679zM17.969 19.353h-6.685v-6.535h0.473v6.093h6.212v0.442zM12.863 22.068l-0.247 0.509-0.247-0.509h-0.207l0.36 0.678v0.395h0.187v-0.395l0.36-0.678h-0.206zM13.173 23.141l0.087-0.25h0.416l0.088 0.25h0.195l-0.406-1.073h-0.167l-0.405 1.073h0.194zM13.468 22.295l0.155 0.445h-0.311l0.156-0.445zM14.451 22.715c-0.027 0.041-0.041 0.087-0.041 0.136 0 0.090 0.032 0.164 0.095 0.22s0.149 0.084 0.255 0.084 0.198-0.029 0.274-0.086l0.060 0.072h0.208l-0.158-0.186c0.062-0.084 0.093-0.193 0.093-0.325h-0.155c0 0.072-0.015 0.138-0.045 0.197l-0.207-0.245 0.073-0.053c0.052-0.037 0.089-0.075 0.111-0.112s0.034-0.079 0.034-0.124c0-0.068-0.025-0.125-0.075-0.17s-0.114-0.069-0.192-0.069c-0.086 0-0.155 0.025-0.206 0.074s-0.077 0.115-0.077 0.199c0 0.034 0.008 0.070 0.024 0.107s0.046 0.082 0.088 0.134c-0.080 0.057-0.133 0.106-0.16 0.148zM14.936 22.952c-0.053 0.040-0.109 0.060-0.169 0.060-0.054 0-0.096-0.015-0.128-0.046s-0.048-0.071-0.048-0.121c0-0.057 0.030-0.109 0.088-0.153l0.023-0.016 0.234 0.276zM14.743 22.477c-0.051-0.062-0.076-0.114-0.076-0.155 0-0.036 0.010-0.066 0.031-0.089s0.048-0.035 0.083-0.035c0.032 0 0.059 0.010 0.080 0.030s0.032 0.043 0.032 0.072c0 0.042-0.015 0.077-0.046 0.104l-0.023 0.018-0.082 0.056zM16.49 23.060c0.074-0.064 0.116-0.154 0.127-0.268h-0.186c-0.010 0.077-0.033 0.131-0.070 0.164s-0.092 0.049-0.165 0.049c-0.080 0-0.141-0.030-0.183-0.091s-0.062-0.149-0.062-0.265v-0.095c0.001-0.114 0.023-0.201 0.066-0.26s0.106-0.089 0.187-0.089c0.070 0 0.123 0.017 0.158 0.052s0.059 0.089 0.068 0.167h0.186c-0.012-0.117-0.054-0.208-0.126-0.273s-0.168-0.097-0.286-0.097c-0.088 0-0.166 0.021-0.233 0.063s-0.118 0.101-0.154 0.178-0.054 0.166-0.054 0.268v0.1c0.001 0.099 0.020 0.185 0.055 0.26s0.085 0.132 0.15 0.173c0.065 0.040 0.141 0.060 0.226 0.060 0.122 0 0.22-0.032 0.294-0.096zM17.586 22.909c0.036-0.080 0.055-0.172 0.055-0.277v-0.060c-0-0.105-0.019-0.196-0.056-0.275s-0.089-0.14-0.157-0.181c-0.067-0.042-0.145-0.063-0.232-0.063s-0.165 0.021-0.233 0.064c-0.067 0.042-0.12 0.103-0.157 0.184s-0.055 0.172-0.055 0.277v0.060c0 0.103 0.019 0.193 0.056 0.272s0.090 0.139 0.158 0.182c0.068 0.042 0.146 0.063 0.233 0.063s0.166-0.021 0.233-0.063c0.068-0.043 0.12-0.104 0.156-0.183zM17.386 22.303c0.045 0.063 0.068 0.155 0.068 0.273v0.056c0 0.121-0.022 0.213-0.067 0.276s-0.108 0.094-0.19 0.094c-0.082 0-0.145-0.032-0.192-0.097s-0.069-0.155-0.069-0.273v-0.062c0.001-0.115 0.024-0.205 0.069-0.268s0.109-0.095 0.189-0.095c0.083 0 0.146 0.032 0.191 0.095z"></path>
</symbol>
<symbol id="icon-linkedin" viewBox="0 0 32 32">
<path d="M31.992 32v-0.001h0.008v-11.736c0-5.741-1.236-10.164-7.948-10.164-3.227 0-5.392 1.771-6.276 3.449h-0.093v-2.913h-6.364v21.364h6.627v-10.579c0-2.785 0.528-5.479 3.977-5.479 3.399 0 3.449 3.179 3.449 5.657v10.401h6.62z"></path>
<path d="M0.528 10.636h6.635v21.364h-6.635v-21.364z"></path>
<path d="M3.843 0c-2.121 0-3.843 1.721-3.843 3.843s1.721 3.879 3.843 3.879c2.121 0 3.843-1.757 3.843-3.879-0.001-2.121-1.723-3.843-3.843-3.843v0z"></path>
</symbol>
<symbol id="icon-facebook" viewBox="0 0 32 32">
<path d="M21.329 5.313h2.921v-5.088c-0.504-0.069-2.237-0.225-4.256-0.225-4.212 0-7.097 2.649-7.097 7.519v4.481h-4.648v5.688h4.648v14.312h5.699v-14.311h4.46l0.708-5.688h-5.169v-3.919c0.001-1.644 0.444-2.769 2.735-2.769z"></path>
</symbol>
<symbol id="icon-twitter" viewBox="0 0 32 32">
<path d="M32 6.078c-1.19 0.522-2.458 0.868-3.78 1.036 1.36-0.812 2.398-2.088 2.886-3.626-1.268 0.756-2.668 1.29-4.16 1.588-1.204-1.282-2.92-2.076-4.792-2.076-3.632 0-6.556 2.948-6.556 6.562 0 0.52 0.044 1.020 0.152 1.496-5.454-0.266-10.28-2.88-13.522-6.862-0.566 0.982-0.898 2.106-0.898 3.316 0 2.272 1.17 4.286 2.914 5.452-1.054-0.020-2.088-0.326-2.964-0.808 0 0.020 0 0.046 0 0.072 0 3.188 2.274 5.836 5.256 6.446-0.534 0.146-1.116 0.216-1.72 0.216-0.42 0-0.844-0.024-1.242-0.112 0.85 2.598 3.262 4.508 6.13 4.57-2.232 1.746-5.066 2.798-8.134 2.798-0.538 0-1.054-0.024-1.57-0.090 2.906 1.874 6.35 2.944 10.064 2.944 12.072 0 18.672-10 18.672-18.668 0-0.29-0.010-0.57-0.024-0.848 1.302-0.924 2.396-2.078 3.288-3.406z"></path>
</symbol>
<symbol id="icon-instagram" viewBox="0 0 32 32">
<path d="M31.969 9.408c-0.075-1.7-0.35-2.869-0.744-3.882-0.406-1.075-1.032-2.038-1.851-2.838-0.8-0.813-1.769-1.444-2.832-1.844-1.019-0.394-2.182-0.669-3.882-0.744-1.713-0.081-2.257-0.1-6.601-0.1s-4.888 0.019-6.595 0.094c-1.7 0.075-2.869 0.35-3.882 0.744-1.075 0.406-2.038 1.031-2.838 1.85-0.813 0.8-1.444 1.769-1.844 2.832-0.394 1.019-0.669 2.182-0.744 3.882-0.081 1.713-0.1 2.257-0.1 6.601s0.019 4.888 0.094 6.595c0.075 1.7 0.35 2.869 0.744 3.882 0.406 1.075 1.038 2.038 1.85 2.838 0.8 0.813 1.769 1.444 2.832 1.844 1.019 0.394 2.182 0.669 3.882 0.744 1.706 0.075 2.25 0.094 6.595 0.094s4.888-0.019 6.595-0.094c1.7-0.075 2.869-0.35 3.882-0.744 2.151-0.832 3.851-2.532 4.682-4.682 0.394-1.019 0.669-2.182 0.744-3.882 0.075-1.707 0.094-2.251 0.094-6.595s-0.006-4.888-0.081-6.595zM29.087 22.473c-0.069 1.563-0.331 2.407-0.55 2.969-0.538 1.394-1.644 2.5-3.038 3.038-0.563 0.219-1.413 0.481-2.969 0.55-1.688 0.075-2.194 0.094-6.464 0.094s-4.782-0.019-6.464-0.094c-1.563-0.069-2.407-0.331-2.969-0.55-0.694-0.256-1.325-0.663-1.838-1.194-0.531-0.519-0.938-1.144-1.194-1.838-0.219-0.563-0.481-1.413-0.55-2.969-0.075-1.688-0.094-2.194-0.094-6.464s0.019-4.782 0.094-6.464c0.069-1.563 0.331-2.407 0.55-2.969 0.256-0.694 0.663-1.325 1.2-1.838 0.519-0.531 1.144-0.938 1.838-1.194 0.563-0.219 1.413-0.481 2.969-0.55 1.688-0.075 2.194-0.094 6.464-0.094 4.276 0 4.782 0.019 6.464 0.094 1.563 0.069 2.407 0.331 2.969 0.55 0.694 0.256 1.325 0.662 1.838 1.194 0.531 0.519 0.938 1.144 1.194 1.838 0.219 0.563 0.481 1.413 0.55 2.969 0.075 1.688 0.094 2.194 0.094 6.464s-0.019 4.77-0.094 6.458z"></path>
<path d="M16.059 7.783c-4.538 0-8.22 3.682-8.22 8.22s3.682 8.22 8.22 8.22c4.539 0 8.22-3.682 8.22-8.22s-3.682-8.22-8.22-8.22zM16.059 21.335c-2.944 0-5.332-2.388-5.332-5.332s2.388-5.332 5.332-5.332c2.944 0 5.332 2.388 5.332 5.332s-2.388 5.332-5.332 5.332z"></path>
<path d="M26.524 7.458c0 1.060-0.859 1.919-1.919 1.919s-1.919-0.859-1.919-1.919c0-1.060 0.859-1.919 1.919-1.919s1.919 0.859 1.919 1.919z"></path>
</symbol>
<symbol id="icon-astronaut" viewBox="0 0 32 32">
<path fill="#2196f3" style="fill: var(--color2, #2196f3)" d="M31.974 4.524c-0.063-0.193-0.229-0.333-0.43-0.363l-1.91-0.278-0.855-1.731c-0.179-0.365-0.777-0.365-0.956 0l-0.855 1.731-1.91 0.278c-0.201 0.029-0.367 0.17-0.431 0.363-0.062 0.193-0.011 0.405 0.135 0.547l1.383 1.348-0.326 1.903c-0.034 0.2 0.048 0.402 0.212 0.522 0.166 0.121 0.382 0.135 0.562 0.040l1.709-0.899 1.709 0.899c0.078 0.041 0.164 0.061 0.249 0.061 0.11 0 0.221-0.034 0.314-0.102 0.164-0.119 0.246-0.322 0.212-0.522l-0.326-1.903 1.383-1.348c0.145-0.142 0.197-0.354 0.135-0.547zM29.511 5.851c-0.125 0.122-0.183 0.299-0.153 0.472l0.191 1.114-1-0.526c-0.078-0.041-0.163-0.061-0.249-0.061s-0.17 0.020-0.249 0.061l-1.001 0.526 0.191-1.114c0.030-0.173-0.028-0.349-0.153-0.472l-0.81-0.789 1.119-0.163c0.174-0.025 0.324-0.134 0.402-0.292l0.5-1.013 0.5 1.013c0.078 0.157 0.228 0.267 0.402 0.292l1.119 0.163-0.809 0.789z"></path>
<path fill="#2196f3" style="fill: var(--color2, #2196f3)" d="M26.134 20.522h-1.067v1.067h1.067v-1.067z"></path>
<path fill="#2196f3" style="fill: var(--color2, #2196f3)" d="M26.134 22.656h-1.067v1.067h1.067v-1.067z"></path>
<path fill="#2196f3" style="fill: var(--color2, #2196f3)" d="M27.2 21.589h-1.067v1.067h1.067v-1.067z"></path>
<path fill="#2196f3" style="fill: var(--color2, #2196f3)" d="M25.067 21.589h-1.067v1.067h1.067v-1.067z"></path>
<path fill="#2196f3" style="fill: var(--color2, #2196f3)" d="M22.4 26.389h-1.067v1.067h1.067v-1.067z"></path>
<path fill="#2196f3" style="fill: var(--color2, #2196f3)" d="M22.4 28.522h-1.067v1.067h1.067v-1.067z"></path>
<path fill="#2196f3" style="fill: var(--color2, #2196f3)" d="M23.467 27.456h-1.067v1.067h1.067v-1.067z"></path>
<path fill="#2196f3" style="fill: var(--color2, #2196f3)" d="M21.333 27.456h-1.067v1.067h1.067v-1.067z"></path>
<path fill="#2196f3" style="fill: var(--color2, #2196f3)" d="M16 24.256h-1.067v1.067h1.067v-1.067z"></path>
<path fill="#2196f3" style="fill: var(--color2, #2196f3)" d="M16 26.389h-1.067v1.067h1.067v-1.067z"></path>
<path fill="#2196f3" style="fill: var(--color2, #2196f3)" d="M17.067 25.322h-1.067v1.067h1.067v-1.067z"></path>
<path fill="#2196f3" style="fill: var(--color2, #2196f3)" d="M14.933 25.322h-1.067v1.067h1.067v-1.067z"></path>
<path fill="#2196f3" style="fill: var(--color2, #2196f3)" d="M5.867 6.122h-1.067v1.067h1.067v-1.067z"></path>
<path fill="#2196f3" style="fill: var(--color2, #2196f3)" d="M5.867 8.255h-1.067v1.067h1.067v-1.067z"></path>
<path fill="#2196f3" style="fill: var(--color2, #2196f3)" d="M6.933 7.189h-1.067v1.067h1.067v-1.067z"></path>
<path fill="#2196f3" style="fill: var(--color2, #2196f3)" d="M4.8 7.189h-1.067v1.067h1.067v-1.067z"></path>
<path fill="#212121" style="fill: var(--color3, #212121)" d="M24.715 14.159c-0.287-0.388-0.709-0.637-1.188-0.705-0.481-0.068-0.956 0.058-1.34 0.352l-1.252 0.96-1.898 1.417-1.358-0.541c2.421-1.086 4.114-3.508 4.114-6.32 0-3.823-3.123-6.933-6.961-6.933s-6.961 3.11-6.961 6.933c0 1.386 0.414 2.674 1.12 3.758l-2.764-0.024c-0.002 0-0.003 0-0.005 0-0.009 0-0.015 0.004-0.023 0.005-0.053 0.002-0.105 0.013-0.155 0.031-0.013 0.005-0.026 0.008-0.038 0.013-0.006 0.003-0.013 0.003-0.019 0.006l-3.233 1.596c-0.001 0-0.001 0-0.001 0.001l-1.893 0.911c-0.021 0.009-0.042 0.021-0.063 0.035-0.755 0.502-1.012 1.489-0.598 2.295 0.22 0.429 0.595 0.745 1.056 0.889 0.178 0.055 0.359 0.083 0.539 0.083 0.29 0 0.577-0.071 0.839-0.211l1.388-0.738 2.264-1.169 1.357-0.008-5.442 5.416c-0.001 0.001-0.001 0.001-0.002 0.001l-1.339 1.333c-0.316 0.315-0.49 0.732-0.49 1.178s0.174 0.863 0.49 1.179c0.325 0.323 0.752 0.485 1.179 0.485s0.854-0.162 1.18-0.485l1.314-1.309 1.741-1.3 0.901 0.897-1.762 1.754c-0 0.001-0.001 0.001-0.002 0.001l-1.339 1.333c-0.316 0.315-0.49 0.732-0.49 1.178s0.174 0.863 0.49 1.179c0.325 0.323 0.753 0.485 1.18 0.485s0.855-0.162 1.18-0.485l3.482-3.467c0.001-0.001 0.001-0.001 0.001-0.002l1.010-1-0.004-0.004c0.006-0.006 0.015-0.009 0.022-0.015l5.166-5.658 3.471 0.494c0.025 0.004 0.050 0.005 0.075 0.005 0.065 0 0.127-0.015 0.187-0.038 0.018-0.006 0.033-0.015 0.050-0.023 0.019-0.010 0.039-0.015 0.058-0.027l3.213-2.133c0.012-0.008 0.018-0.021 0.029-0.029 0.013-0.010 0.029-0.014 0.041-0.026l1.271-1.191c0.662-0.62 0.753-1.635 0.212-2.362zM2.13 17.77c-0.173 0.093-0.37 0.111-0.558 0.052-0.187-0.058-0.338-0.186-0.427-0.358-0.161-0.314-0.068-0.695 0.214-0.902l1.314-0.632 0.449 1.312-0.992 0.528zM5.628 15.942l-1.548 0.8-0.439-1.283 2.027-1.001-0.040 1.484zM20.727 9.322c0 0.918-0.219 1.785-0.599 2.559l-4.181-1.899c-0.044-0.573-0.341-1.075-0.788-1.388l1.464-4.86c2.378 0.756 4.105 2.974 4.105 5.588zM8.938 9.322c0-3.235 2.644-5.867 5.894-5.867 0.253 0 0.5 0.021 0.745 0.052l-1.432 4.754c-0.019-0.001-0.037-0.006-0.057-0.006-1.033 0-1.873 0.837-1.873 1.867s0.84 1.867 1.873 1.867c0.694 0 1.294-0.383 1.618-0.945l3.862 1.755c-1.075 1.446-2.795 2.39-4.737 2.39-3.25 0-5.894-2.632-5.894-5.867zM14.894 10.122c0 0.441-0.362 0.8-0.806 0.8s-0.806-0.359-0.806-0.8c0-0.441 0.362-0.8 0.806-0.8s0.806 0.359 0.806 0.8zM2.465 25.146c-0.236 0.234-0.619 0.234-0.854 0.001-0.114-0.114-0.176-0.263-0.176-0.423s0.062-0.309 0.176-0.421l0.962-0.958 0.851 0.848-0.959 0.955zM5.679 28.88c-0.236 0.234-0.619 0.235-0.855 0.001-0.114-0.114-0.176-0.263-0.176-0.423s0.062-0.309 0.176-0.421l0.963-0.959 0.852 0.848-0.96 0.955zM9.16 25.411c-0.001 0-0.001 0-0.002 0.001l-1.765 1.76-0.852-0.848 1.763-1.755c0 0 0 0 0-0s0.001-0.001 0.002-0.001c0.040-0.040 0.065-0.088 0.090-0.135 0.007-0.014 0.020-0.026 0.026-0.040 0.017-0.041 0.019-0.085 0.026-0.129 0.003-0.025 0.014-0.047 0.014-0.073 0-0.036-0.013-0.070-0.020-0.106-0.006-0.032-0.006-0.065-0.019-0.095-0.020-0.050-0.055-0.094-0.091-0.138-0.010-0.012-0.014-0.027-0.025-0.038 0 0 0 0-0.001 0s-0.001-0.002-0.001-0.002l-1.607-1.6c-0.017-0.017-0.039-0.024-0.058-0.038-0.028-0.022-0.055-0.042-0.087-0.058-0.030-0.015-0.061-0.024-0.093-0.033-0.034-0.010-0.067-0.017-0.103-0.020-0.033-0.002-0.063 0.001-0.095 0.005-0.036 0.004-0.069 0.009-0.104 0.020-0.034 0.011-0.063 0.027-0.094 0.045-0.020 0.011-0.042 0.015-0.061 0.029l-1.773 1.324-0.901-0.897 2.399-2.386 4.361 4.289-0.928 0.919zM15.979 18.394c-0.015-0.002-0.030 0.004-0.045 0.003-0.039-0.002-0.076 0.001-0.115 0.007-0.030 0.005-0.059 0.011-0.088 0.021-0.034 0.012-0.065 0.028-0.097 0.047-0.030 0.018-0.057 0.037-0.083 0.061-0.013 0.011-0.028 0.017-0.040 0.029l-4.698 5.146-4.328-4.257 2.833-2.818c0.209-0.208 0.21-0.546 0.002-0.755-0.105-0.105-0.243-0.157-0.381-0.156v-0.001l-2.219 0.013 0.028-1.607 3.104 0.027c1.265 1.294 3.029 2.101 4.981 2.101 0.437 0 0.864-0.045 1.279-0.123 0.040 0.032 0.079 0.065 0.13 0.085l2.41 0.96 0.152 0.758 0.178 0.885-3.003-0.427zM20.020 18.572l-0.313-1.558 1.446-1.080 0.947 1.257-2.080 1.381zM23.774 15.741l-0.838 0.785-0.931-1.236 0.831-0.637c0.155-0.119 0.351-0.168 0.543-0.143 0.193 0.027 0.364 0.128 0.48 0.284 0.217 0.292 0.18 0.699-0.085 0.947z"></path>
<path fill="#212121" style="fill: var(--color3, #212121)" d="M13.602 18.544l-2.143-2.133c-0.207-0.207-0.545-0.207-0.753 0l-2.142 2.133c-0.1 0.101-0.157 0.236-0.157 0.378s0.056 0.278 0.157 0.378l2.142 2.133c0.104 0.103 0.241 0.155 0.377 0.155s0.273-0.052 0.376-0.155l2.143-2.133c0.1-0.1 0.157-0.236 0.157-0.378s-0.057-0.278-0.157-0.378zM11.083 20.303l-1.387-1.381 1.387-1.381 1.387 1.381-1.387 1.381z"></path>
<path fill="#212121" style="fill: var(--color3, #212121)" d="M17.164 5.071l-0.258 1.036c0.071 0.018 1.738 0.452 1.738 2.149h1.067c-0-2.017-1.666-2.965-2.547-3.185z"></path>
<path fill="#212121" style="fill: var(--color3, #212121)" d="M19.711 9.322h-1.067v1.067h1.067v-1.067z"></path>
</symbol>
<symbol id="icon-diagram" viewBox="0 0 32 32">
<path fill="#2196f3" style="fill: var(--color2, #2196f3)" d="M14.926 14.965h1.066v4.798h-1.066v-4.797z"></path>
<path fill="#2196f3" style="fill: var(--color2, #2196f3)" d="M19.19 17.097h1.066v2.665h-1.066v-2.665z"></path>
<path fill="#2196f3" style="fill: var(--color2, #2196f3)" d="M10.661 18.696h1.066v1.066h-1.066v-1.066z"></path>
<path fill="#2196f3" style="fill: var(--color2, #2196f3)" d="M7.463 18.163h1.066v1.599h-1.066v-1.599z"></path>
<path fill="#212121" style="fill: var(--color3, #212121)" d="M1.599 28.291h25.587c0.883 0 1.599-0.716 1.599-1.599v-2.132c0-0.883-0.716-1.599-1.599-1.599h-0.533v-13.293l3.028-2.868c0.703 0.346 1.553 0.136 2.013-0.499s0.396-1.508-0.152-2.068-1.42-0.644-2.065-0.198c-0.644 0.446-0.873 1.292-0.542 2.002l-2.281 2.163v-1.23c0-0.883-0.716-1.599-1.599-1.599h-21.322c-0.883 0-1.599 0.716-1.599 1.599v15.992h-0.533c-0.883 0-1.599 0.716-1.599 1.599v2.132c0 0.883 0.716 1.599 1.599 1.599zM30.384 4.837c0.294 0 0.533 0.239 0.533 0.533s-0.239 0.533-0.533 0.533c-0.294 0-0.533-0.239-0.533-0.533s0.239-0.533 0.533-0.533zM3.198 6.969c0-0.294 0.239-0.533 0.533-0.533h21.322c0.294 0 0.533 0.239 0.533 0.533v2.239l-1.066 1.013v-2.186c0-0.294-0.239-0.533-0.533-0.533h-19.19c-0.294 0-0.533 0.239-0.533 0.533v13.326c0 0.294 0.239 0.533 0.533 0.533h19.19c0.294 0 0.533-0.239 0.533-0.533v-9.674l1.066-1.010v12.284h-22.388v-15.992zM7.996 13.899c-0.721-0.002-1.354 0.478-1.546 1.174s0.105 1.433 0.725 1.801c0.62 0.368 1.41 0.276 1.928-0.226l1.853 0.93c0.215 0.108 0.476 0.057 0.636-0.123l3.939-4.431 3.872 2.901c0.208 0.156 0.498 0.139 0.686-0.039l3.365-3.188v8.131h-18.124v-12.26h18.124v2.66l-3.771 3.572-3.904-2.927c-0.222-0.166-0.534-0.135-0.718 0.072l-3.993 4.493-1.493-0.746c0.011-0.064 0.018-0.129 0.020-0.193 0-0.883-0.716-1.599-1.599-1.599zM8.529 15.498c0 0.294-0.239 0.533-0.533 0.533s-0.533-0.239-0.533-0.533c0-0.294 0.239-0.533 0.533-0.533s0.533 0.239 0.533 0.533zM11.727 24.027h5.331v0.533c0 0.294-0.239 0.533-0.533 0.533h-4.264c-0.294 0-0.533-0.239-0.533-0.533v-0.533zM1.066 24.56c0-0.294 0.239-0.533 0.533-0.533h9.062v0.533c0 0.883 0.716 1.599 1.599 1.599h4.264c0.883 0 1.599-0.716 1.599-1.599v-0.533h9.062c0.294 0 0.533 0.239 0.533 0.533v2.132c0 0.294-0.239 0.533-0.533 0.533h-25.587c-0.294 0-0.533-0.239-0.533-0.533v-2.132z"></path>
</symbol>
<symbol id="icon-clock" viewBox="0 0 32 32">
<path fill="#212121" style="fill: var(--color3, #212121)" d="M31.297 15.301c-0.002-8.452-6.855-15.303-15.308-15.301s-15.303 6.855-15.301 15.308c0.001 6.658 4.307 12.551 10.649 14.576 0.061 0.019 0.124 0.029 0.187 0.029 0.121-0 0.239-0.032 0.342-0.094 0.135-0.080 0.236-0.207 0.283-0.356l3.865-12.25c1.057-0.005 1.909-0.866 1.903-1.923s-0.866-1.909-1.923-1.903c-0.284 0.001-0.565 0.067-0.82 0.191l-5.106-5.107c-0.253-0.245-0.657-0.238-0.902 0.016-0.239 0.247-0.239 0.639 0 0.886l5.103 5.109c-0.392 0.799-0.168 1.764 0.536 2.309l-3.683 11.673c-7.278-2.681-11.004-10.754-8.323-18.032s10.754-11.004 18.032-8.323 11.004 10.754 8.323 18.032c-1.31 3.556-4.001 6.431-7.462 7.973l-0.398-1.874c-0.073-0.344-0.411-0.565-0.756-0.492-0.109 0.023-0.209 0.074-0.292 0.148l-3.837 3.426c-0.263 0.234-0.287 0.637-0.052 0.9 0.076 0.085 0.174 0.149 0.283 0.184l4.899 1.563c0.335 0.108 0.694-0.077 0.802-0.412 0.034-0.106 0.040-0.219 0.017-0.328l-0.391-1.839c5.664-2.388 9.342-7.942 9.329-14.089zM15.992 14.664c0.352 0 0.638 0.286 0.638 0.638s-0.286 0.638-0.638 0.638c-0.352 0-0.638-0.285-0.638-0.638s0.285-0.638 0.638-0.638zM18.093 29.528l2.184-1.948 0.603 2.84-2.787-0.892z"></path>
<path fill="#2196f3" style="fill: var(--color2, #2196f3)" d="M15.354 3.185v1.275c0 0.352 0.285 0.638 0.638 0.638s0.638-0.285 0.638-0.638v-1.275c0-0.352-0.286-0.638-0.638-0.638s-0.638 0.286-0.638 0.638z"></path>
<path fill="#2196f3" style="fill: var(--color2, #2196f3)" d="M3.876 14.664c-0.352 0-0.638 0.286-0.638 0.638s0.285 0.638 0.638 0.638h1.275c0.352 0 0.638-0.285 0.638-0.638s-0.285-0.638-0.638-0.638h-1.275z"></path>
<path fill="#2196f3" style="fill: var(--color2, #2196f3)" d="M28.108 15.939c0.352 0 0.638-0.285 0.638-0.638s-0.285-0.638-0.638-0.638h-1.275c-0.352 0-0.638 0.286-0.638 0.638s0.286 0.638 0.638 0.638h1.275z"></path>
</symbol>
<symbol id="icon-antenna" viewBox="0 0 32 32">
<path fill="#212121" style="fill: var(--color3, #212121)" d="M30.773 22.098l-8.443-8.505 0.937-4.615c0.242 0.094 0.499 0.144 0.758 0.146h0.006c1.192 0.014 2.17-0.941 2.184-2.133s-0.941-2.17-2.133-2.184c-1.192-0.014-2.17 0.941-2.184 2.133-0.003 0.255 0.039 0.509 0.125 0.749l-4.96 0.605-8.091-8.133c-0.099-0.101-0.235-0.159-0.377-0.16-0.14 0.001-0.274 0.056-0.373 0.155l-1.513 1.504c-0.208 0.208-0.208 0.546 0 0.754l0.814 0.826c-3.153 5.798-2.129 12.978 2.519 17.663 0.043 0.041 0.092 0.074 0.146 0.098-0.034 0.18-0.051 0.364-0.052 0.547v6.187h-6.4c-1.472 0.002-2.665 1.195-2.667 2.667v1.067c0 0.295 0.239 0.533 0.533 0.533h24.533c0.295 0 0.533-0.239 0.533-0.533v-1.067c-0.002-1.472-1.195-2.665-2.667-2.667h-6.4v-2.742c1.003 0.21 2.024 0.317 3.049 0.32 2.458-0.003 4.877-0.615 7.040-1.783l0.818 0.823c0.099 0.101 0.235 0.159 0.377 0.16 0.14-0.001 0.274-0.056 0.373-0.155l1.513-1.504c0.208-0.208 0.208-0.546 0-0.754zM23.28 6.233c0.418-0.415 1.093-0.414 1.508 0.004s0.414 1.093-0.004 1.508c-0.2 0.199-0.47 0.31-0.752 0.31h-0.003c-0.589-0.003-1.064-0.483-1.061-1.072 0.002-0.282 0.115-0.552 0.314-0.751h-0.002zM22.024 9.738l-0.598 2.946-1.175-1.182 1.774-1.763zM21.419 8.836l-1.92 1.909-1.485-1.493 3.405-0.415zM24.004 28.8c0.884 0 1.6 0.716 1.6 1.6v0.533h-23.467v-0.533c0-0.884 0.716-1.6 1.6-1.6h20.267zM16.537 26.667v1.067h-5.333v-1.067h5.333zM11.204 25.6v-4.053c0-1.294 1.196-2.347 2.667-2.347s2.667 1.053 2.667 2.347v4.053h-5.333zM17.604 23.904v-2.357c0-1.882-1.675-3.413-3.733-3.413-1.331-0.020-2.576 0.657-3.281 1.786-4.058-4.274-4.971-10.645-2.279-15.887l18.602 18.708c-2.872 1.461-6.165 1.873-9.309 1.163zM28.893 23.22l-21.057-21.181 0.755-0.752 7.935 7.98c0.004 0 0.006 0.007 0.010 0.010l13.115 13.191-0.757 0.752z"></path>
<path fill="#2196f3" style="fill: var(--color2, #2196f3)" d="M13.876 20.267h-0.005c-0.884-0.001-1.601 0.714-1.602 1.598s0.714 1.601 1.598 1.602h0.005c0.884 0.001 1.601-0.714 1.602-1.598s-0.714-1.601-1.598-1.602zM14.249 22.245c-0.1 0.1-0.236 0.156-0.378 0.155-0.295-0.002-0.532-0.242-0.531-0.536 0.001-0.141 0.057-0.276 0.157-0.375s0.233-0.154 0.373-0.155c0.295 0.002 0.532 0.241 0.53 0.536-0.001 0.141-0.057 0.276-0.157 0.375h0.005z"></path>
</symbol>
<symbol id="icon-smartphone" viewBox="0 0 32 32">
<path d="M23 0h-14c-1.654 0-3 1.346-3 3v26c0 1.654 1.346 3 3 3h14c1.654 0 3-1.346 3-3v-26c0-1.654-1.346-3-3-3zM9 2h14c0.552 0 1 0.448 1 1v21h-16v-21c0-0.552 0.448-1 1-1zM23 30h-14c-0.552 0-1-0.448-1-1v-3h16v3c0 0.552-0.448 1-1 1z"></path>
<path d="M10.707 27.478c0.391 0.365 0.391 0.956 0 1.32s-1.024 0.364-1.414 0c-0.391-0.365-0.391-0.956 0-1.32s1.024-0.365 1.414 0z"></path>
</symbol>
<symbol id="icon-envelope" viewBox="0 0 32 32">
<path d="M29 4h-26c-1.654 0-3 1.345-3 2.999v17.994c0 1.654 1.346 2.999 3 2.999h26c1.654 0 3-1.345 3-2.999v-17.994c0-1.654-1.346-2.999-3-2.999zM29 5.999c0.136 0 0.265 0.028 0.383 0.077l-13.383 11.595-13.383-11.595c0.118-0.049 0.247-0.077 0.383-0.077h26zM29 25.992h-26c-0.552 0-1-0.448-1-1v-16.804l13.345 11.561c0.188 0.163 0.422 0.244 0.655 0.244s0.467-0.081 0.655-0.244l13.345-11.561v16.804c0 0.552-0.448 1-1 1z"></path>
</symbol>
<symbol id="icon-Vector" viewBox="0 0 32 32">
<path d="M32 3.223l-3.223-3.223-12.777 12.777-12.777-12.777-3.223 3.223 12.777 12.777-12.777 12.777 3.223 3.223 12.777-12.777 12.777 12.777 3.223-3.223-12.777-12.777 12.777-12.777z"></path>
</symbol>
<symbol id="icon-phone" viewBox="0 0 32 32">
<path d="M24.882 19.773l-3.268-0.373c-0.785-0.090-1.557 0.18-2.11 0.733l-2.367 2.367c-3.641-1.853-6.626-4.825-8.478-8.478l2.38-2.38c0.553-0.553 0.823-1.325 0.733-2.11l-0.373-3.242c-0.154-1.299-1.248-2.277-2.56-2.277h-2.226c-1.454 0-2.663 1.209-2.573 2.663 0.682 10.987 9.469 19.761 20.443 20.443 1.454 0.090 2.663-1.119 2.663-2.573v-2.226c0.013-1.3-0.965-2.393-2.264-2.547z"></path>
</symbol>
<symbol id="icon-person" viewBox="0 0 32 32">
<path d="M16 16c2.947 0 5.333-2.387 5.333-5.333s-2.387-5.333-5.333-5.333c-2.947 0-5.333 2.387-5.333 5.333s2.387 5.333 5.333 5.333zM16 18.667c-3.56 0-10.667 1.787-10.667 5.333v1.333c0 0.733 0.6 1.333 1.333 1.333h18.667c0.733 0 1.333-0.6 1.333-1.333v-1.333c0-3.547-7.107-5.333-10.667-5.333z"></path>
</symbol>
<symbol id="icon-email" viewBox="0 0 32 32">
<path d="M26.667 5.333h-21.333c-1.467 0-2.653 1.2-2.653 2.667l-0.013 16c0 1.467 1.2 2.667 2.667 2.667h21.333c1.467 0 2.667-1.2 2.667-2.667v-16c0-1.467-1.2-2.667-2.667-2.667zM26.133 11l-9.427 5.893c-0.427 0.267-0.987 0.267-1.413 0l-9.427-5.893c-0.333-0.213-0.533-0.573-0.533-0.96 0-0.893 0.973-1.427 1.733-0.96l8.933 5.587 8.933-5.587c0.76-0.467 1.733 0.067 1.733 0.96 0 0.387-0.2 0.747-0.533 0.96z"></path>
<symbol id="icon-icon-check" viewBox="0 0 34 32">
<path fill="#2196f3" style="fill: var(--color1, #2196f3)" d="M4.267 0h25.6c2.356 0 4.267 1.91 4.267 4.267v23.467c0 2.356-1.91 4.267-4.267 4.267h-25.6c-2.356 0-4.267-1.91-4.267-4.267v-23.467c0-2.356 1.91-4.267 4.267-4.267z"></path>
<path fill="#fff" style="fill: var(--color2, #fff); stroke: var(--color2, #fff)" stroke="#fff" stroke-linejoin="miter" stroke-linecap="butt" stroke-miterlimit="4" stroke-width="0.4267" d="M8.442 16.537l-0.147-0.14-2.205 2.088 7.767 7.41 16.318-15.567-2.19-2.089-14.128 13.465-5.416-5.167z"></path>
</symbol>
<symbol id="icon-icon-send" viewBox="0 0 32 32">
<path d="M32 0l-32 18 10.227 3.788 15.773-14.788-11.998 16.186 0.010 0.004-0.012-0.004v8.814l5.735-6.691 7.265 2.691 5-28z"></path>
</symbol>
<symbol id="icon-button" viewBox="0 0 115 32">
<path fill="#2196f3" style="fill: var(--color1, #2196f3)" d="M4.414 0h105.931c1.219 0 2.207 0.988 2.207 2.207v23.172c0 1.219-0.988 2.207-2.207 2.207h-105.931c-1.219 0-2.207-0.988-2.207-2.207v-23.172c0-1.219 0.988-2.207 2.207-2.207z"></path>
<path fill="#fff" style="fill: var(--color2, #fff)" d="M29.812 14.909c0-0.112-0.017-0.213-0.052-0.302-0.032-0.092-0.092-0.175-0.181-0.25-0.089-0.078-0.214-0.154-0.375-0.228s-0.369-0.152-0.625-0.233c-0.284-0.092-0.555-0.195-0.81-0.31-0.253-0.115-0.477-0.249-0.672-0.401-0.192-0.155-0.345-0.335-0.457-0.539-0.109-0.204-0.164-0.441-0.164-0.711 0-0.261 0.058-0.499 0.172-0.711 0.115-0.216 0.276-0.399 0.483-0.552 0.207-0.155 0.451-0.274 0.733-0.358 0.285-0.083 0.596-0.125 0.935-0.125 0.463 0 0.866 0.083 1.211 0.25s0.612 0.395 0.802 0.685c0.193 0.29 0.289 0.622 0.289 0.996h-1.284c0-0.184-0.039-0.345-0.116-0.483-0.075-0.141-0.19-0.251-0.345-0.332-0.152-0.080-0.345-0.121-0.578-0.121-0.224 0-0.411 0.034-0.56 0.103-0.149 0.066-0.262 0.157-0.336 0.272-0.075 0.112-0.112 0.239-0.112 0.379 0 0.106 0.026 0.203 0.078 0.289 0.055 0.086 0.135 0.167 0.241 0.241s0.237 0.145 0.392 0.211c0.155 0.066 0.335 0.131 0.539 0.194 0.342 0.103 0.642 0.22 0.901 0.349 0.262 0.129 0.48 0.274 0.655 0.435s0.307 0.343 0.397 0.547c0.089 0.204 0.134 0.435 0.134 0.694 0 0.273-0.053 0.517-0.159 0.733s-0.26 0.398-0.461 0.547c-0.201 0.149-0.441 0.263-0.72 0.341s-0.591 0.116-0.935 0.116c-0.31 0-0.616-0.040-0.918-0.121-0.302-0.083-0.576-0.208-0.823-0.375-0.244-0.167-0.44-0.379-0.586-0.638s-0.22-0.565-0.22-0.918h1.297c0 0.195 0.030 0.361 0.091 0.496s0.145 0.244 0.254 0.328c0.112 0.083 0.244 0.144 0.397 0.181 0.155 0.037 0.325 0.056 0.509 0.056 0.224 0 0.408-0.032 0.552-0.095 0.147-0.063 0.254-0.151 0.323-0.263 0.072-0.112 0.108-0.239 0.108-0.379zM35.196 15.435v-3.547h1.241v4.664h-1.168l-0.073-1.116zM35.333 14.478l0.366-0.009c0 0.31-0.036 0.599-0.108 0.866-0.072 0.264-0.18 0.494-0.323 0.69-0.144 0.192-0.325 0.343-0.543 0.453-0.218 0.106-0.476 0.159-0.772 0.159-0.227 0-0.437-0.032-0.629-0.095-0.19-0.066-0.353-0.168-0.491-0.306-0.135-0.141-0.241-0.32-0.319-0.539-0.075-0.221-0.112-0.487-0.112-0.797v-3.013h1.241v3.022c0 0.138 0.016 0.254 0.047 0.349 0.034 0.095 0.082 0.172 0.142 0.233s0.131 0.103 0.211 0.129c0.083 0.026 0.175 0.039 0.276 0.039 0.256 0 0.457-0.052 0.603-0.155 0.149-0.103 0.254-0.244 0.315-0.422 0.063-0.181 0.095-0.382 0.095-0.603zM37.915 9.931h1.241v5.552l-0.125 1.069h-1.116v-6.621zM42.109 14.172v0.091c0 0.348-0.037 0.667-0.112 0.957-0.072 0.29-0.184 0.542-0.336 0.754-0.152 0.21-0.342 0.374-0.569 0.491-0.224 0.115-0.489 0.172-0.793 0.172-0.284 0-0.532-0.057-0.741-0.172-0.207-0.115-0.381-0.277-0.522-0.487s-0.254-0.455-0.341-0.737c-0.086-0.282-0.151-0.589-0.194-0.922v-0.198c0.043-0.333 0.108-0.641 0.194-0.922s0.2-0.527 0.341-0.737 0.315-0.372 0.522-0.487c0.207-0.115 0.451-0.172 0.733-0.172 0.307 0 0.575 0.059 0.802 0.177 0.23 0.115 0.42 0.279 0.569 0.491 0.152 0.21 0.264 0.46 0.336 0.75 0.075 0.287 0.112 0.605 0.112 0.953zM40.867 14.263v-0.091c0-0.19-0.014-0.368-0.043-0.534-0.026-0.17-0.072-0.318-0.138-0.444-0.066-0.129-0.157-0.231-0.272-0.306-0.112-0.075-0.257-0.112-0.435-0.112-0.17 0-0.313 0.029-0.431 0.086s-0.216 0.138-0.293 0.241c-0.075 0.103-0.131 0.227-0.168 0.371-0.037 0.141-0.060 0.296-0.069 0.466v0.565c0.009 0.227 0.046 0.428 0.112 0.603 0.069 0.172 0.172 0.309 0.31 0.409 0.141 0.098 0.323 0.147 0.547 0.147 0.175 0 0.32-0.034 0.435-0.103s0.204-0.167 0.267-0.293c0.066-0.126 0.112-0.274 0.138-0.444 0.026-0.172 0.039-0.359 0.039-0.56zM45.932 15.263c0-0.089-0.026-0.17-0.078-0.241s-0.148-0.138-0.289-0.198c-0.138-0.063-0.338-0.121-0.599-0.172-0.236-0.052-0.455-0.116-0.659-0.194-0.201-0.080-0.376-0.177-0.526-0.289-0.147-0.112-0.262-0.244-0.345-0.397-0.083-0.155-0.125-0.332-0.125-0.53 0-0.195 0.042-0.379 0.125-0.552 0.086-0.172 0.208-0.325 0.366-0.457 0.161-0.135 0.356-0.24 0.586-0.315 0.233-0.078 0.494-0.116 0.784-0.116 0.405 0 0.753 0.065 1.043 0.194 0.293 0.129 0.517 0.307 0.672 0.534 0.158 0.224 0.237 0.48 0.237 0.767h-1.241c0-0.121-0.026-0.228-0.078-0.323-0.049-0.098-0.126-0.174-0.233-0.228-0.103-0.057-0.239-0.086-0.405-0.086-0.138 0-0.257 0.024-0.358 0.073-0.101 0.046-0.178 0.109-0.233 0.19-0.052 0.078-0.078 0.164-0.078 0.259 0 0.072 0.014 0.136 0.043 0.194 0.032 0.055 0.082 0.105 0.151 0.151s0.158 0.089 0.267 0.129c0.112 0.037 0.25 0.072 0.414 0.103 0.336 0.069 0.637 0.159 0.901 0.272 0.264 0.109 0.474 0.259 0.629 0.448 0.155 0.187 0.233 0.432 0.233 0.737 0 0.207-0.046 0.397-0.138 0.569s-0.224 0.323-0.397 0.453c-0.172 0.126-0.379 0.226-0.621 0.297-0.239 0.069-0.507 0.103-0.806 0.103-0.434 0-0.802-0.078-1.103-0.233-0.299-0.155-0.526-0.352-0.681-0.591-0.152-0.241-0.228-0.489-0.228-0.741h1.177c0.006 0.17 0.049 0.306 0.129 0.409 0.083 0.103 0.188 0.178 0.315 0.224 0.129 0.046 0.269 0.069 0.418 0.069 0.161 0 0.295-0.022 0.401-0.065 0.106-0.046 0.187-0.106 0.241-0.181 0.057-0.078 0.086-0.167 0.086-0.267zM50.401 15.668c0.152 0 0.287-0.029 0.405-0.086 0.118-0.060 0.21-0.144 0.276-0.25 0.069-0.109 0.105-0.237 0.108-0.384h1.168c-0.003 0.328-0.090 0.619-0.263 0.875-0.172 0.253-0.404 0.453-0.694 0.599-0.29 0.144-0.615 0.215-0.974 0.215-0.362 0-0.678-0.060-0.948-0.181-0.267-0.121-0.49-0.287-0.668-0.5-0.178-0.216-0.312-0.466-0.401-0.75-0.089-0.287-0.134-0.595-0.134-0.922v-0.125c0-0.33 0.045-0.638 0.134-0.922 0.089-0.287 0.223-0.537 0.401-0.75 0.178-0.216 0.401-0.384 0.668-0.504s0.58-0.181 0.94-0.181c0.382 0 0.717 0.073 1.004 0.22 0.29 0.147 0.517 0.356 0.681 0.629 0.167 0.27 0.251 0.591 0.254 0.961h-1.168c-0.003-0.155-0.036-0.296-0.099-0.422-0.060-0.126-0.149-0.227-0.267-0.302-0.115-0.078-0.257-0.116-0.427-0.116-0.181 0-0.329 0.039-0.444 0.116-0.115 0.075-0.204 0.178-0.267 0.31-0.063 0.129-0.108 0.277-0.134 0.444-0.023 0.164-0.034 0.336-0.034 0.517v0.125c0 0.181 0.011 0.355 0.034 0.522s0.066 0.315 0.129 0.444c0.066 0.129 0.157 0.231 0.272 0.306s0.264 0.112 0.448 0.112zM54.849 12.905v3.647h-1.241v-4.664h1.168l0.073 1.017zM56.254 11.858l-0.022 1.151c-0.060-0.009-0.134-0.016-0.22-0.022-0.083-0.009-0.159-0.013-0.228-0.013-0.175 0-0.327 0.023-0.457 0.069-0.126 0.043-0.233 0.108-0.319 0.194-0.083 0.086-0.147 0.191-0.19 0.315-0.040 0.124-0.063 0.264-0.069 0.422l-0.25-0.078c0-0.302 0.030-0.579 0.091-0.832 0.060-0.256 0.148-0.478 0.263-0.668 0.118-0.19 0.262-0.336 0.431-0.44s0.364-0.155 0.582-0.155c0.069 0 0.139 0.006 0.211 0.017 0.072 0.009 0.131 0.022 0.177 0.039zM58.68 11.888v4.664h-1.245v-4.664h1.245zM57.357 10.672c0-0.181 0.063-0.33 0.19-0.448s0.296-0.177 0.509-0.177c0.21 0 0.378 0.059 0.504 0.177 0.129 0.118 0.194 0.267 0.194 0.448s-0.065 0.33-0.194 0.448c-0.126 0.118-0.295 0.177-0.504 0.177-0.213 0-0.382-0.059-0.509-0.177s-0.19-0.267-0.19-0.448zM60.236 9.931h1.241v5.552l-0.125 1.069h-1.116v-6.621zM64.429 14.172v0.091c0 0.348-0.037 0.667-0.112 0.957-0.072 0.29-0.184 0.542-0.336 0.754-0.152 0.21-0.342 0.374-0.569 0.491-0.225 0.115-0.489 0.172-0.793 0.172-0.284 0-0.531-0.057-0.742-0.172-0.207-0.115-0.381-0.277-0.521-0.487s-0.254-0.455-0.34-0.737c-0.086-0.282-0.151-0.589-0.194-0.922v-0.198c0.044-0.333 0.108-0.641 0.194-0.922s0.2-0.527 0.34-0.737c0.141-0.21 0.314-0.372 0.521-0.487s0.451-0.172 0.733-0.172c0.307 0 0.574 0.059 0.802 0.177 0.23 0.115 0.419 0.279 0.569 0.491 0.152 0.21 0.264 0.46 0.336 0.75 0.075 0.287 0.112 0.605 0.112 0.953zM63.188 14.263v-0.091c0-0.19-0.014-0.368-0.043-0.534-0.026-0.17-0.072-0.318-0.138-0.444-0.066-0.129-0.157-0.231-0.271-0.306-0.112-0.075-0.257-0.112-0.435-0.112-0.169 0-0.313 0.029-0.431 0.086s-0.216 0.138-0.293 0.241c-0.075 0.103-0.131 0.227-0.168 0.371-0.038 0.141-0.060 0.296-0.069 0.466v0.565c0.009 0.227 0.046 0.428 0.112 0.603 0.069 0.172 0.173 0.309 0.311 0.409 0.141 0.098 0.323 0.147 0.547 0.147 0.175 0 0.32-0.034 0.435-0.103s0.204-0.167 0.267-0.293c0.066-0.126 0.112-0.274 0.138-0.444 0.026-0.172 0.039-0.359 0.039-0.56zM67.877 16.638c-0.362 0-0.686-0.057-0.974-0.172-0.287-0.118-0.532-0.28-0.733-0.487-0.199-0.207-0.351-0.447-0.457-0.72-0.106-0.276-0.159-0.569-0.159-0.879v-0.172c0-0.353 0.050-0.677 0.151-0.97s0.244-0.547 0.431-0.763c0.19-0.216 0.42-0.381 0.69-0.496 0.27-0.118 0.575-0.177 0.914-0.177 0.33 0 0.624 0.055 0.879 0.164s0.47 0.264 0.642 0.466c0.175 0.201 0.308 0.443 0.397 0.724 0.089 0.279 0.134 0.589 0.134 0.931v0.517h-3.707v-0.828h2.487v-0.095c0-0.172-0.031-0.326-0.095-0.461-0.060-0.138-0.152-0.247-0.276-0.328s-0.281-0.121-0.474-0.121c-0.164 0-0.305 0.036-0.423 0.108s-0.214 0.172-0.289 0.302c-0.072 0.129-0.126 0.282-0.164 0.457-0.034 0.172-0.052 0.362-0.052 0.569v0.172c0 0.187 0.026 0.359 0.078 0.517 0.055 0.158 0.131 0.295 0.228 0.409 0.1 0.115 0.221 0.204 0.362 0.267 0.144 0.063 0.306 0.095 0.487 0.095 0.224 0 0.433-0.043 0.625-0.129 0.195-0.089 0.364-0.223 0.504-0.401l0.604 0.655c-0.098 0.141-0.232 0.276-0.401 0.405-0.167 0.129-0.367 0.236-0.604 0.319-0.236 0.080-0.504 0.121-0.806 0.121z"></path>
<path fill="#fff" style="fill: var(--color2, #fff)" d="M97.103 7.172l-13.241 7.448 4.232 1.567 6.527-6.119-4.964 6.698 0.004 0.002-0.005-0.002v3.647l2.373-2.769 3.006 1.113 2.069-11.586z"></path>
</symbol>
<symbol id="icon-checkbox" viewBox="0 0 560 32">
<path fill="#212121" style="fill: var(--color1, #212121)" d="M18.963 8.889v15.556h-16.593v-15.556h16.593zM18.963 6.667h-16.593c-1.304 0-2.37 1-2.37 2.222v15.556c0 1.222 1.067 2.222 2.37 2.222h16.593c1.304 0 2.37-1 2.37-2.222v-15.556c0-1.222-1.067-2.222-2.37-2.222z"></path>
<path fill="#757575" style="fill: var(--color2, #757575)" d="M35.427 9.396v13.271h-1.759v-13.271h1.759zM49.936 20.981v-5.077c0-0.389-0.079-0.726-0.237-1.012-0.152-0.292-0.383-0.516-0.693-0.674s-0.693-0.237-1.148-0.237c-0.425 0-0.799 0.073-1.121 0.219-0.316 0.146-0.565 0.337-0.747 0.574-0.176 0.237-0.264 0.492-0.264 0.766h-1.686c0-0.352 0.091-0.702 0.273-1.048s0.444-0.659 0.784-0.939c0.346-0.286 0.76-0.51 1.24-0.675 0.486-0.17 1.027-0.255 1.622-0.255 0.717 0 1.349 0.122 1.896 0.365 0.553 0.243 0.984 0.611 1.294 1.103 0.316 0.486 0.474 1.097 0.474 1.832v4.594c0 0.328 0.027 0.678 0.082 1.048 0.061 0.371 0.149 0.69 0.264 0.957v0.146h-1.759c-0.085-0.194-0.152-0.453-0.201-0.775-0.049-0.328-0.073-0.632-0.073-0.911zM50.228 16.687l0.018 1.185h-1.704c-0.48 0-0.908 0.039-1.285 0.119-0.377 0.073-0.693 0.185-0.948 0.337s-0.45 0.343-0.583 0.574c-0.134 0.225-0.201 0.489-0.201 0.793 0 0.31 0.070 0.592 0.21 0.848s0.349 0.459 0.629 0.611c0.286 0.146 0.635 0.219 1.048 0.219 0.516 0 0.972-0.109 1.367-0.328s0.708-0.486 0.939-0.802c0.237-0.316 0.365-0.623 0.383-0.921l0.72 0.811c-0.043 0.255-0.158 0.538-0.346 0.848s-0.441 0.608-0.757 0.893c-0.31 0.279-0.681 0.513-1.112 0.702-0.425 0.182-0.905 0.273-1.44 0.273-0.668 0-1.255-0.131-1.759-0.392-0.498-0.261-0.887-0.611-1.167-1.048-0.273-0.443-0.41-0.939-0.41-1.486 0-0.529 0.103-0.993 0.31-1.395 0.207-0.407 0.504-0.744 0.893-1.012 0.389-0.273 0.857-0.48 1.404-0.62s1.158-0.21 1.832-0.21h1.96zM61.224 12.805h1.531v9.652c0 0.869-0.176 1.61-0.529 2.224s-0.845 1.079-1.477 1.395c-0.626 0.322-1.349 0.483-2.169 0.483-0.34 0-0.741-0.055-1.203-0.164-0.456-0.103-0.905-0.283-1.349-0.538-0.437-0.249-0.805-0.586-1.103-1.012l0.884-1.003c0.413 0.498 0.845 0.845 1.294 1.039 0.456 0.195 0.905 0.292 1.349 0.292 0.535 0 0.997-0.1 1.385-0.301s0.69-0.498 0.902-0.893c0.219-0.389 0.328-0.869 0.328-1.44v-7.565l0.155-2.169zM54.434 17.845v-0.191c0-0.753 0.088-1.437 0.264-2.051 0.182-0.62 0.441-1.151 0.775-1.595 0.34-0.444 0.751-0.784 1.231-1.021 0.48-0.243 1.021-0.365 1.622-0.365 0.62 0 1.161 0.109 1.622 0.328 0.468 0.213 0.863 0.526 1.185 0.939 0.328 0.407 0.586 0.899 0.775 1.477s0.319 1.231 0.392 1.96v0.839c-0.067 0.723-0.197 1.373-0.392 1.951-0.188 0.577-0.447 1.069-0.775 1.477-0.322 0.407-0.717 0.72-1.185 0.939-0.468 0.213-1.015 0.319-1.641 0.319-0.589 0-1.124-0.125-1.604-0.374-0.474-0.249-0.881-0.598-1.221-1.048s-0.602-0.978-0.784-1.586c-0.176-0.614-0.264-1.279-0.264-1.996zM56.12 17.654v0.191c0 0.492 0.049 0.954 0.146 1.385 0.103 0.431 0.258 0.811 0.465 1.139 0.213 0.328 0.483 0.586 0.811 0.775 0.328 0.182 0.72 0.273 1.176 0.273 0.559 0 1.021-0.119 1.385-0.355s0.653-0.55 0.866-0.939c0.219-0.389 0.389-0.811 0.51-1.267v-2.197c-0.067-0.334-0.17-0.656-0.31-0.966-0.134-0.316-0.31-0.595-0.529-0.839-0.213-0.249-0.477-0.447-0.793-0.592s-0.687-0.219-1.112-0.219c-0.462 0-0.86 0.097-1.194 0.292-0.328 0.188-0.599 0.45-0.811 0.784-0.207 0.328-0.362 0.711-0.465 1.149-0.097 0.431-0.146 0.893-0.146 1.385zM67.563 14.354v8.313h-1.686v-9.862h1.641l0.046 1.549zM70.644 12.75l-0.009 1.568c-0.14-0.030-0.273-0.049-0.401-0.055-0.121-0.012-0.261-0.018-0.419-0.018-0.389 0-0.732 0.061-1.030 0.182s-0.55 0.292-0.757 0.51c-0.207 0.219-0.371 0.48-0.492 0.784-0.115 0.298-0.191 0.626-0.228 0.984l-0.474 0.273c0-0.595 0.058-1.155 0.173-1.677 0.121-0.523 0.307-0.984 0.556-1.385 0.249-0.407 0.565-0.723 0.948-0.948 0.389-0.231 0.851-0.346 1.385-0.346 0.121 0 0.261 0.015 0.419 0.046 0.158 0.024 0.267 0.052 0.328 0.082zM76.672 22.849c-0.687 0-1.309-0.115-1.869-0.346-0.553-0.237-1.030-0.568-1.431-0.994-0.395-0.425-0.699-0.93-0.911-1.513s-0.319-1.221-0.319-1.914v-0.383c0-0.802 0.119-1.516 0.355-2.142 0.237-0.632 0.559-1.167 0.966-1.604s0.869-0.769 1.385-0.993 1.051-0.337 1.604-0.337c0.705 0 1.313 0.122 1.823 0.365 0.517 0.243 0.939 0.583 1.267 1.021 0.328 0.431 0.571 0.942 0.729 1.531 0.158 0.583 0.237 1.221 0.237 1.914v0.757h-7.365v-1.376h5.678v-0.128c-0.024-0.437-0.115-0.863-0.273-1.276-0.152-0.413-0.395-0.753-0.729-1.021s-0.79-0.401-1.367-0.401c-0.383 0-0.735 0.082-1.057 0.246-0.322 0.158-0.599 0.395-0.829 0.711s-0.41 0.702-0.538 1.158-0.191 0.981-0.191 1.577v0.383c0 0.468 0.064 0.908 0.191 1.322 0.134 0.407 0.325 0.766 0.574 1.076 0.255 0.31 0.562 0.553 0.921 0.729 0.365 0.176 0.778 0.264 1.24 0.264 0.595 0 1.1-0.122 1.513-0.365s0.775-0.568 1.085-0.975l1.021 0.811c-0.213 0.322-0.483 0.629-0.811 0.921s-0.732 0.529-1.212 0.711c-0.474 0.182-1.036 0.273-1.686 0.273zM87.131 22.849c-0.687 0-1.309-0.115-1.868-0.346-0.553-0.237-1.030-0.568-1.431-0.994-0.395-0.425-0.699-0.93-0.911-1.513s-0.319-1.221-0.319-1.914v-0.383c0-0.802 0.118-1.516 0.355-2.142 0.237-0.632 0.559-1.167 0.966-1.604s0.869-0.769 1.385-0.993c0.517-0.225 1.051-0.337 1.604-0.337 0.705 0 1.312 0.122 1.823 0.365 0.516 0.243 0.939 0.583 1.267 1.021 0.328 0.431 0.571 0.942 0.729 1.531 0.158 0.583 0.237 1.221 0.237 1.914v0.757h-7.365v-1.376h5.678v-0.128c-0.024-0.437-0.115-0.863-0.273-1.276-0.152-0.413-0.395-0.753-0.729-1.021s-0.79-0.401-1.367-0.401c-0.383 0-0.735 0.082-1.057 0.246-0.322 0.158-0.599 0.395-0.829 0.711s-0.41 0.702-0.538 1.158-0.191 0.981-0.191 1.577v0.383c0 0.468 0.064 0.908 0.191 1.322 0.134 0.407 0.325 0.766 0.574 1.076 0.255 0.31 0.562 0.553 0.921 0.729 0.365 0.176 0.778 0.264 1.24 0.264 0.595 0 1.1-0.122 1.513-0.365s0.775-0.568 1.085-0.975l1.021 0.811c-0.213 0.322-0.483 0.629-0.811 0.921s-0.732 0.529-1.212 0.711c-0.474 0.182-1.036 0.273-1.686 0.273zM101.184 20.917l2.534-8.112h1.112l-0.219 1.613-2.579 8.249h-1.085l0.237-1.75zM99.48 12.805l2.16 8.203 0.155 1.659h-1.139l-2.862-9.862h1.686zM107.255 20.944l2.060-8.139h1.677l-2.862 9.862h-1.13l0.255-1.723zM105.076 12.805l2.479 7.975 0.283 1.887h-1.076l-2.652-8.267-0.219-1.595h1.185zM115.115 12.805v9.862h-1.695v-9.862h1.695zM113.293 10.189c0-0.273 0.082-0.504 0.246-0.693 0.17-0.188 0.419-0.283 0.747-0.283 0.322 0 0.568 0.094 0.738 0.283 0.176 0.188 0.264 0.419 0.264 0.693 0 0.261-0.088 0.486-0.264 0.674-0.17 0.182-0.416 0.273-0.738 0.273-0.328 0-0.577-0.091-0.747-0.273-0.164-0.188-0.246-0.413-0.246-0.674zM122.511 12.805v1.294h-5.332v-1.294h5.332zM118.984 10.408h1.686v9.816c0 0.334 0.052 0.586 0.155 0.757s0.237 0.283 0.401 0.337c0.164 0.055 0.34 0.082 0.529 0.082 0.14 0 0.286-0.012 0.437-0.036 0.158-0.030 0.277-0.055 0.355-0.073l0.009 1.376c-0.134 0.043-0.31 0.082-0.529 0.119-0.213 0.043-0.471 0.064-0.775 0.064-0.413 0-0.793-0.082-1.139-0.246s-0.623-0.437-0.829-0.82c-0.201-0.389-0.301-0.911-0.301-1.568v-9.807zM126.735 8.667v14h-1.686v-14h1.686zM126.335 17.362l-0.702-0.027c0.006-0.675 0.106-1.297 0.301-1.869 0.194-0.577 0.468-1.079 0.82-1.504s0.772-0.754 1.258-0.984c0.492-0.237 1.036-0.355 1.631-0.355 0.486 0 0.924 0.067 1.313 0.201 0.389 0.128 0.72 0.334 0.993 0.62 0.279 0.286 0.492 0.656 0.638 1.112 0.146 0.45 0.219 1 0.219 1.65v6.462h-1.695v-6.481c0-0.516-0.076-0.93-0.228-1.239-0.152-0.316-0.374-0.544-0.665-0.684-0.292-0.146-0.65-0.219-1.076-0.219-0.419 0-0.802 0.088-1.148 0.264-0.34 0.176-0.635 0.419-0.884 0.729-0.243 0.31-0.434 0.665-0.574 1.066-0.134 0.395-0.201 0.814-0.201 1.258zM145.209 12.805v1.294h-5.332v-1.294h5.332zM141.683 10.408h1.685v9.816c0 0.334 0.052 0.586 0.156 0.757 0.103 0.17 0.236 0.283 0.4 0.337s0.341 0.082 0.529 0.082c0.14 0 0.285-0.012 0.437-0.036 0.157-0.030 0.276-0.055 0.356-0.073l0.008 1.376c-0.133 0.043-0.309 0.082-0.528 0.119-0.213 0.043-0.471 0.064-0.775 0.064-0.413 0-0.793-0.082-1.14-0.246-0.345-0.164-0.623-0.437-0.829-0.82-0.2-0.389-0.3-0.911-0.3-1.568v-9.807zM149.433 8.667v14h-1.685v-14h1.685zM149.033 17.362l-0.703-0.027c0.007-0.675 0.107-1.297 0.301-1.869 0.195-0.577 0.468-1.079 0.82-1.504s0.772-0.754 1.257-0.984c0.492-0.237 1.036-0.355 1.632-0.355 0.487 0 0.924 0.067 1.312 0.201 0.389 0.128 0.72 0.334 0.993 0.62 0.28 0.286 0.493 0.656 0.639 1.112 0.145 0.45 0.219 1 0.219 1.65v6.462h-1.695v-6.481c0-0.516-0.076-0.93-0.228-1.239-0.152-0.316-0.375-0.544-0.665-0.684-0.292-0.146-0.651-0.219-1.076-0.219-0.419 0-0.803 0.088-1.148 0.264-0.341 0.176-0.636 0.419-0.884 0.729-0.244 0.31-0.435 0.665-0.575 1.066-0.133 0.395-0.2 0.814-0.2 1.258zM162.681 22.849c-0.687 0-1.309-0.115-1.868-0.346-0.553-0.237-1.031-0.568-1.432-0.994-0.395-0.425-0.699-0.93-0.911-1.513-0.213-0.583-0.32-1.221-0.32-1.914v-0.383c0-0.802 0.119-1.516 0.356-2.142 0.237-0.632 0.559-1.167 0.967-1.604 0.407-0.437 0.868-0.769 1.385-0.993 0.516-0.225 1.051-0.337 1.604-0.337 0.705 0 1.312 0.122 1.823 0.365 0.516 0.243 0.939 0.583 1.267 1.021 0.328 0.431 0.572 0.942 0.729 1.531 0.159 0.583 0.237 1.221 0.237 1.914v0.757h-7.365v-1.376h5.679v-0.128c-0.024-0.437-0.115-0.863-0.273-1.276-0.152-0.413-0.395-0.753-0.729-1.021-0.333-0.267-0.789-0.401-1.367-0.401-0.383 0-0.736 0.082-1.057 0.246-0.323 0.158-0.599 0.395-0.829 0.711s-0.411 0.702-0.537 1.158c-0.128 0.456-0.192 0.981-0.192 1.577v0.383c0 0.468 0.064 0.908 0.192 1.322 0.133 0.407 0.324 0.766 0.573 1.076 0.256 0.31 0.563 0.553 0.921 0.729 0.364 0.176 0.777 0.264 1.239 0.264 0.596 0 1.1-0.122 1.513-0.365s0.775-0.568 1.085-0.975l1.020 0.811c-0.212 0.322-0.483 0.629-0.811 0.921s-0.732 0.529-1.212 0.711c-0.475 0.182-1.036 0.273-1.687 0.273zM176.069 8.667v14h-1.695v-14h1.695zM183.429 22.849c-0.687 0-1.309-0.115-1.869-0.346-0.552-0.237-1.029-0.568-1.431-0.994-0.395-0.425-0.699-0.93-0.911-1.513-0.213-0.583-0.32-1.221-0.32-1.914v-0.383c0-0.802 0.119-1.516 0.356-2.142 0.237-0.632 0.559-1.167 0.965-1.604 0.408-0.437 0.869-0.769 1.387-0.993 0.516-0.225 1.051-0.337 1.604-0.337 0.704 0 1.312 0.122 1.823 0.365 0.516 0.243 0.939 0.583 1.267 1.021 0.328 0.431 0.571 0.942 0.729 1.531 0.157 0.583 0.237 1.221 0.237 1.914v0.757h-7.365v-1.376h5.679v-0.128c-0.024-0.437-0.116-0.863-0.273-1.276-0.152-0.413-0.395-0.753-0.729-1.021s-0.789-0.401-1.367-0.401c-0.383 0-0.736 0.082-1.057 0.246-0.323 0.158-0.599 0.395-0.829 0.711-0.232 0.316-0.411 0.702-0.539 1.158-0.127 0.456-0.191 0.981-0.191 1.577v0.383c0 0.468 0.064 0.908 0.191 1.322 0.135 0.407 0.325 0.766 0.575 1.076 0.255 0.31 0.563 0.553 0.92 0.729 0.365 0.176 0.779 0.264 1.24 0.264 0.596 0 1.1-0.122 1.513-0.365s0.775-0.568 1.084-0.975l1.021 0.811c-0.213 0.322-0.483 0.629-0.811 0.921-0.329 0.292-0.733 0.529-1.213 0.711-0.473 0.182-1.036 0.273-1.685 0.273zM193.924 12.805v1.294h-5.332v-1.294h5.332zM190.396 10.408h1.687v9.816c0 0.334 0.052 0.586 0.155 0.757 0.104 0.17 0.237 0.283 0.401 0.337s0.34 0.082 0.529 0.082c0.139 0 0.285-0.012 0.437-0.036 0.157-0.030 0.276-0.055 0.355-0.073l0.009 1.376c-0.133 0.043-0.309 0.082-0.528 0.119-0.213 0.043-0.472 0.064-0.775 0.064-0.413 0-0.793-0.082-1.14-0.246s-0.623-0.437-0.829-0.82c-0.2-0.389-0.301-0.911-0.301-1.568v-9.807zM200.591 12.805v1.294h-5.332v-1.294h5.332zM197.063 10.408h1.687v9.816c0 0.334 0.052 0.586 0.155 0.757 0.104 0.17 0.237 0.283 0.401 0.337s0.34 0.082 0.529 0.082c0.139 0 0.285-0.012 0.437-0.036 0.157-0.030 0.276-0.055 0.355-0.073l0.009 1.376c-0.133 0.043-0.309 0.082-0.528 0.119-0.213 0.043-0.472 0.064-0.775 0.064-0.413 0-0.793-0.082-1.14-0.246s-0.623-0.437-0.829-0.82c-0.2-0.389-0.301-0.911-0.301-1.568v-9.807zM207.221 22.849c-0.687 0-1.309-0.115-1.869-0.346-0.552-0.237-1.029-0.568-1.431-0.994-0.395-0.425-0.699-0.93-0.912-1.513-0.212-0.583-0.319-1.221-0.319-1.914v-0.383c0-0.802 0.119-1.516 0.356-2.142 0.237-0.632 0.559-1.167 0.965-1.604 0.408-0.437 0.869-0.769 1.387-0.993 0.516-0.225 1.051-0.337 1.604-0.337 0.704 0 1.312 0.122 1.823 0.365 0.516 0.243 0.939 0.583 1.267 1.021 0.328 0.431 0.571 0.942 0.729 1.531 0.157 0.583 0.237 1.221 0.237 1.914v0.757h-7.365v-1.376h5.679v-0.128c-0.024-0.437-0.116-0.863-0.273-1.276-0.152-0.413-0.395-0.753-0.729-1.021s-0.789-0.401-1.367-0.401c-0.383 0-0.736 0.082-1.057 0.246-0.323 0.158-0.599 0.395-0.829 0.711-0.232 0.316-0.411 0.702-0.539 1.158-0.127 0.456-0.191 0.981-0.191 1.577v0.383c0 0.468 0.064 0.908 0.191 1.322 0.135 0.407 0.325 0.766 0.575 1.076 0.255 0.31 0.561 0.553 0.92 0.729 0.365 0.176 0.779 0.264 1.24 0.264 0.596 0 1.1-0.122 1.513-0.365s0.775-0.568 1.084-0.975l1.021 0.811c-0.213 0.322-0.483 0.629-0.811 0.921-0.329 0.292-0.733 0.529-1.213 0.711-0.473 0.182-1.036 0.273-1.685 0.273zM215.273 14.354v8.313h-1.687v-9.862h1.641l0.045 1.549zM218.353 12.75l-0.008 1.568c-0.14-0.030-0.275-0.049-0.401-0.055-0.121-0.012-0.261-0.018-0.42-0.018-0.388 0-0.732 0.061-1.029 0.182s-0.551 0.292-0.757 0.51c-0.205 0.219-0.371 0.48-0.492 0.784-0.115 0.298-0.191 0.626-0.228 0.984l-0.473 0.273c0-0.595 0.057-1.155 0.173-1.677 0.121-0.523 0.307-0.984 0.556-1.385 0.249-0.407 0.565-0.723 0.948-0.948 0.388-0.231 0.851-0.346 1.385-0.346 0.121 0 0.261 0.015 0.419 0.046 0.159 0.024 0.268 0.052 0.328 0.082zM231.477 20.981v-5.077c0-0.389-0.079-0.726-0.236-1.012-0.152-0.292-0.384-0.516-0.693-0.674s-0.692-0.237-1.148-0.237c-0.425 0-0.8 0.073-1.121 0.219-0.316 0.146-0.565 0.337-0.748 0.574-0.176 0.237-0.264 0.492-0.264 0.766h-1.687c0-0.352 0.092-0.702 0.275-1.048 0.181-0.346 0.443-0.659 0.783-0.939 0.347-0.286 0.76-0.51 1.24-0.675 0.487-0.17 1.027-0.255 1.623-0.255 0.717 0 1.349 0.122 1.896 0.365 0.553 0.243 0.984 0.611 1.295 1.103 0.315 0.486 0.473 1.097 0.473 1.832v4.594c0 0.328 0.027 0.678 0.081 1.048 0.061 0.371 0.149 0.69 0.265 0.957v0.146h-1.76c-0.084-0.194-0.152-0.453-0.2-0.775-0.048-0.328-0.073-0.632-0.073-0.911zM231.769 16.687l0.019 1.185h-1.705c-0.48 0-0.908 0.039-1.284 0.119-0.377 0.073-0.693 0.185-0.948 0.337-0.256 0.152-0.451 0.343-0.584 0.574-0.133 0.225-0.2 0.489-0.2 0.793 0 0.31 0.069 0.592 0.209 0.848s0.349 0.459 0.629 0.611c0.285 0.146 0.635 0.219 1.048 0.219 0.516 0 0.972-0.109 1.367-0.328s0.708-0.486 0.939-0.802c0.237-0.316 0.365-0.623 0.383-0.921l0.72 0.811c-0.041 0.255-0.157 0.538-0.345 0.848-0.189 0.31-0.441 0.608-0.757 0.893-0.309 0.279-0.68 0.513-1.112 0.702-0.425 0.182-0.905 0.273-1.44 0.273-0.668 0-1.255-0.131-1.759-0.392-0.499-0.261-0.888-0.611-1.167-1.048-0.273-0.443-0.411-0.939-0.411-1.486 0-0.529 0.104-0.993 0.311-1.395 0.207-0.407 0.504-0.744 0.893-1.012 0.388-0.273 0.856-0.48 1.403-0.62s1.157-0.21 1.832-0.21h1.96zM238.063 14.91v7.757h-1.687v-9.862h1.596l0.091 2.105zM237.661 17.362l-0.701-0.027c0.005-0.675 0.105-1.297 0.3-1.869 0.195-0.577 0.468-1.079 0.821-1.504 0.352-0.425 0.771-0.754 1.257-0.984 0.492-0.237 1.036-0.355 1.632-0.355 0.485 0 0.923 0.067 1.312 0.201 0.389 0.128 0.72 0.334 0.993 0.62 0.28 0.286 0.492 0.656 0.639 1.112 0.145 0.45 0.219 1 0.219 1.65v6.462h-1.696v-6.481c0-0.516-0.076-0.93-0.228-1.239-0.152-0.316-0.373-0.544-0.665-0.684-0.292-0.146-0.649-0.219-1.075-0.219-0.42 0-0.803 0.088-1.149 0.264-0.34 0.176-0.635 0.419-0.884 0.729-0.243 0.31-0.435 0.665-0.575 1.066-0.133 0.395-0.2 0.814-0.2 1.258zM253.471 20.753v-12.086h1.695v14h-1.549l-0.145-1.914zM246.835 17.845v-0.191c0-0.753 0.091-1.437 0.273-2.051 0.188-0.62 0.453-1.151 0.793-1.595 0.347-0.444 0.756-0.784 1.231-1.021 0.48-0.243 1.015-0.365 1.604-0.365 0.62 0 1.16 0.109 1.623 0.328 0.468 0.213 0.863 0.526 1.184 0.939 0.328 0.407 0.587 0.899 0.775 1.477 0.189 0.577 0.32 1.231 0.392 1.96v0.839c-0.067 0.723-0.197 1.373-0.392 1.951-0.188 0.577-0.447 1.069-0.775 1.477-0.321 0.407-0.716 0.72-1.184 0.939-0.468 0.213-1.015 0.319-1.641 0.319-0.577 0-1.105-0.125-1.585-0.374-0.475-0.249-0.884-0.598-1.231-1.048-0.34-0.45-0.605-0.978-0.793-1.586-0.183-0.614-0.273-1.279-0.273-1.996zM248.531 17.654v0.191c0 0.492 0.048 0.954 0.145 1.385 0.103 0.431 0.261 0.811 0.473 1.139 0.213 0.328 0.484 0.586 0.812 0.775 0.328 0.182 0.72 0.273 1.176 0.273 0.559 0 1.017-0.119 1.376-0.355 0.364-0.237 0.656-0.55 0.875-0.939s0.389-0.811 0.511-1.267v-2.197c-0.073-0.334-0.18-0.656-0.319-0.966-0.135-0.316-0.311-0.595-0.529-0.839-0.212-0.249-0.477-0.447-0.793-0.592-0.309-0.146-0.677-0.219-1.103-0.219-0.461 0-0.86 0.097-1.193 0.292-0.328 0.188-0.599 0.45-0.812 0.784-0.212 0.328-0.371 0.711-0.473 1.149-0.097 0.431-0.145 0.893-0.145 1.385zM269.356 20.981v-5.077c0-0.389-0.079-0.726-0.237-1.012-0.152-0.292-0.383-0.516-0.692-0.674-0.311-0.158-0.693-0.237-1.149-0.237-0.425 0-0.799 0.073-1.121 0.219-0.316 0.146-0.564 0.337-0.747 0.574-0.176 0.237-0.264 0.492-0.264 0.766h-1.687c0-0.352 0.091-0.702 0.273-1.048s0.444-0.659 0.784-0.939c0.347-0.286 0.76-0.51 1.24-0.675 0.485-0.17 1.027-0.255 1.621-0.255 0.717 0 1.349 0.122 1.896 0.365 0.553 0.243 0.985 0.611 1.295 1.103 0.316 0.486 0.473 1.097 0.473 1.832v4.594c0 0.328 0.028 0.678 0.083 1.048 0.061 0.371 0.149 0.69 0.264 0.957v0.146h-1.759c-0.085-0.194-0.152-0.453-0.2-0.775-0.049-0.328-0.073-0.632-0.073-0.911zM269.648 16.687l0.017 1.185h-1.704c-0.48 0-0.908 0.039-1.285 0.119-0.376 0.073-0.692 0.185-0.948 0.337-0.255 0.152-0.449 0.343-0.583 0.574-0.135 0.225-0.201 0.489-0.201 0.793 0 0.31 0.071 0.592 0.209 0.848 0.14 0.255 0.351 0.459 0.629 0.611 0.285 0.146 0.635 0.219 1.048 0.219 0.517 0 0.972-0.109 1.368-0.328 0.395-0.219 0.708-0.486 0.939-0.802 0.237-0.316 0.364-0.623 0.383-0.921l0.72 0.811c-0.043 0.255-0.159 0.538-0.347 0.848s-0.44 0.608-0.756 0.893c-0.311 0.279-0.681 0.513-1.112 0.702-0.425 0.182-0.905 0.273-1.44 0.273-0.669 0-1.255-0.131-1.76-0.392-0.497-0.261-0.887-0.611-1.167-1.048-0.273-0.443-0.409-0.939-0.409-1.486 0-0.529 0.103-0.993 0.309-1.395 0.207-0.407 0.504-0.744 0.893-1.012 0.389-0.273 0.857-0.48 1.404-0.62s1.157-0.21 1.832-0.21h1.96zM278.201 21.464c0.4 0 0.771-0.082 1.112-0.246 0.34-0.164 0.62-0.389 0.839-0.675 0.219-0.292 0.343-0.623 0.373-0.993h1.604c-0.031 0.583-0.228 1.127-0.592 1.631-0.359 0.498-0.829 0.902-1.413 1.212-0.583 0.304-1.224 0.456-1.923 0.456-0.741 0-1.389-0.131-1.941-0.392-0.548-0.261-1.003-0.62-1.368-1.076-0.359-0.456-0.628-0.978-0.811-1.568-0.176-0.596-0.264-1.224-0.264-1.887v-0.383c0-0.662 0.088-1.288 0.264-1.878 0.183-0.595 0.452-1.121 0.811-1.577 0.365-0.456 0.82-0.814 1.368-1.076 0.552-0.261 1.2-0.392 1.941-0.392 0.771 0 1.445 0.158 2.023 0.474 0.577 0.31 1.031 0.735 1.359 1.276 0.333 0.535 0.516 1.142 0.547 1.823h-1.604c-0.031-0.407-0.147-0.775-0.347-1.103-0.195-0.328-0.461-0.589-0.801-0.784-0.335-0.2-0.727-0.301-1.176-0.301-0.517 0-0.952 0.103-1.304 0.31-0.347 0.201-0.623 0.474-0.829 0.82-0.2 0.34-0.347 0.72-0.437 1.139-0.085 0.413-0.128 0.835-0.128 1.267v0.383c0 0.431 0.043 0.857 0.128 1.276s0.228 0.799 0.428 1.139c0.207 0.34 0.484 0.614 0.829 0.82 0.353 0.201 0.791 0.301 1.313 0.301zM288.532 21.464c0.401 0 0.772-0.082 1.112-0.246s0.62-0.389 0.839-0.675c0.219-0.292 0.343-0.623 0.373-0.993h1.604c-0.031 0.583-0.228 1.127-0.592 1.631-0.359 0.498-0.829 0.902-1.413 1.212-0.583 0.304-1.224 0.456-1.923 0.456-0.741 0-1.389-0.131-1.941-0.392-0.547-0.261-1.003-0.62-1.368-1.076-0.357-0.456-0.628-0.978-0.811-1.568-0.176-0.596-0.264-1.224-0.264-1.887v-0.383c0-0.662 0.088-1.288 0.264-1.878 0.183-0.595 0.453-1.121 0.811-1.577 0.365-0.456 0.821-0.814 1.368-1.076 0.552-0.261 1.2-0.392 1.941-0.392 0.772 0 1.445 0.158 2.023 0.474 0.577 0.31 1.031 0.735 1.359 1.276 0.335 0.535 0.516 1.142 0.547 1.823h-1.604c-0.031-0.407-0.145-0.775-0.347-1.103-0.195-0.328-0.461-0.589-0.801-0.784-0.335-0.2-0.727-0.301-1.176-0.301-0.517 0-0.951 0.103-1.304 0.31-0.345 0.201-0.623 0.474-0.829 0.82-0.2 0.34-0.347 0.72-0.437 1.139-0.085 0.413-0.128 0.835-0.128 1.267v0.383c0 0.431 0.043 0.857 0.128 1.276s0.228 0.799 0.428 1.139c0.207 0.34 0.484 0.614 0.829 0.82 0.353 0.201 0.791 0.301 1.313 0.301zM299.008 22.849c-0.687 0-1.309-0.115-1.868-0.346-0.553-0.237-1.029-0.568-1.431-0.994-0.396-0.425-0.699-0.93-0.912-1.513-0.212-0.583-0.319-1.221-0.319-1.914v-0.383c0-0.802 0.119-1.516 0.355-2.142 0.237-0.632 0.56-1.167 0.967-1.604s0.869-0.769 1.385-0.993c0.517-0.225 1.052-0.337 1.604-0.337 0.705 0 1.313 0.122 1.823 0.365 0.517 0.243 0.94 0.583 1.268 1.021 0.328 0.431 0.571 0.942 0.729 1.531 0.157 0.583 0.236 1.221 0.236 1.914v0.757h-7.364v-1.376h5.679v-0.128c-0.025-0.437-0.116-0.863-0.273-1.276-0.152-0.413-0.396-0.753-0.729-1.021-0.335-0.267-0.791-0.401-1.368-0.401-0.383 0-0.735 0.082-1.057 0.246-0.321 0.158-0.599 0.395-0.829 0.711s-0.409 0.702-0.537 1.158-0.192 0.981-0.192 1.577v0.383c0 0.468 0.064 0.908 0.192 1.322 0.133 0.407 0.325 0.766 0.575 1.076 0.255 0.31 0.561 0.553 0.92 0.729 0.364 0.176 0.777 0.264 1.24 0.264 0.595 0 1.1-0.122 1.512-0.365 0.413-0.243 0.776-0.568 1.085-0.975l1.021 0.811c-0.213 0.322-0.484 0.629-0.812 0.921s-0.732 0.529-1.212 0.711c-0.473 0.182-1.036 0.273-1.687 0.273zM307.060 14.701v11.758h-1.695v-13.654h1.549l0.145 1.896zM313.705 17.654v0.191c0 0.717-0.085 1.382-0.256 1.996-0.169 0.608-0.419 1.136-0.747 1.586-0.323 0.45-0.72 0.799-1.195 1.048-0.473 0.249-1.017 0.374-1.631 0.374-0.627 0-1.179-0.103-1.659-0.31s-0.888-0.507-1.221-0.902c-0.335-0.395-0.603-0.869-0.803-1.422-0.195-0.553-0.328-1.176-0.401-1.868v-1.021c0.073-0.729 0.211-1.382 0.411-1.96s0.465-1.069 0.793-1.477c0.333-0.413 0.737-0.726 1.212-0.939 0.473-0.219 1.020-0.328 1.64-0.328s1.171 0.122 1.651 0.365c0.48 0.237 0.884 0.577 1.212 1.021s0.573 0.975 0.737 1.595c0.171 0.614 0.256 1.297 0.256 2.051zM312.009 17.845v-0.191c0-0.492-0.051-0.954-0.155-1.385-0.103-0.438-0.264-0.82-0.483-1.149-0.213-0.334-0.487-0.595-0.82-0.784-0.335-0.195-0.733-0.292-1.195-0.292-0.425 0-0.796 0.073-1.112 0.219-0.309 0.146-0.575 0.343-0.793 0.592-0.219 0.243-0.397 0.523-0.537 0.839-0.133 0.31-0.233 0.632-0.3 0.966v2.361c0.121 0.425 0.291 0.826 0.509 1.203 0.219 0.371 0.511 0.671 0.876 0.902 0.364 0.225 0.823 0.337 1.376 0.337 0.456 0 0.848-0.094 1.176-0.283 0.333-0.194 0.607-0.459 0.82-0.793 0.219-0.334 0.38-0.717 0.483-1.148 0.104-0.437 0.155-0.902 0.155-1.395zM320.545 12.805v1.294h-5.332v-1.294h5.332zM317.017 10.408h1.687v9.816c0 0.334 0.052 0.586 0.155 0.757 0.104 0.17 0.237 0.283 0.401 0.337s0.34 0.082 0.528 0.082c0.14 0 0.287-0.012 0.439-0.036 0.157-0.030 0.276-0.055 0.355-0.073l0.009 1.376c-0.133 0.043-0.309 0.082-0.528 0.119-0.213 0.043-0.472 0.064-0.776 0.064-0.412 0-0.792-0.082-1.139-0.246s-0.623-0.437-0.829-0.82c-0.2-0.389-0.301-0.911-0.301-1.568v-9.807zM332.403 12.805v1.294h-5.332v-1.294h5.332zM328.875 10.408h1.687v9.816c0 0.334 0.051 0.586 0.155 0.757 0.103 0.17 0.237 0.283 0.401 0.337s0.34 0.082 0.528 0.082c0.14 0 0.285-0.012 0.437-0.036 0.159-0.030 0.277-0.055 0.356-0.073l0.009 1.376c-0.135 0.043-0.311 0.082-0.529 0.119-0.212 0.043-0.471 0.064-0.775 0.064-0.413 0-0.793-0.082-1.139-0.246-0.347-0.164-0.623-0.437-0.829-0.82-0.201-0.389-0.301-0.911-0.301-1.568v-9.807zM336.627 8.667v14h-1.687v-14h1.687zM336.225 17.362l-0.703-0.027c0.007-0.675 0.107-1.297 0.301-1.869 0.195-0.577 0.468-1.079 0.82-1.504 0.353-0.425 0.772-0.754 1.259-0.984 0.492-0.237 1.036-0.355 1.631-0.355 0.487 0 0.924 0.067 1.313 0.201 0.388 0.128 0.72 0.334 0.993 0.62 0.279 0.286 0.492 0.656 0.637 1.112 0.147 0.45 0.219 1 0.219 1.65v6.462h-1.695v-6.481c0-0.516-0.076-0.93-0.228-1.239-0.152-0.316-0.373-0.544-0.665-0.684-0.292-0.146-0.651-0.219-1.076-0.219-0.419 0-0.801 0.088-1.148 0.264-0.34 0.176-0.635 0.419-0.884 0.729-0.243 0.31-0.435 0.665-0.575 1.066-0.133 0.395-0.2 0.814-0.2 1.258zM349.873 22.849c-0.687 0-1.309-0.115-1.868-0.346-0.553-0.237-1.031-0.568-1.431-0.994-0.396-0.425-0.699-0.93-0.912-1.513-0.212-0.583-0.319-1.221-0.319-1.914v-0.383c0-0.802 0.119-1.516 0.355-2.142 0.237-0.632 0.56-1.167 0.967-1.604s0.869-0.769 1.385-0.993 1.051-0.337 1.604-0.337c0.705 0 1.313 0.122 1.823 0.365 0.517 0.243 0.939 0.583 1.268 1.021 0.328 0.431 0.571 0.942 0.728 1.531 0.159 0.583 0.237 1.221 0.237 1.914v0.757h-7.364v-1.376h5.679v-0.128c-0.025-0.437-0.116-0.863-0.275-1.276-0.152-0.413-0.395-0.753-0.728-1.021-0.335-0.267-0.791-0.401-1.368-0.401-0.383 0-0.735 0.082-1.057 0.246-0.321 0.158-0.599 0.395-0.829 0.711s-0.409 0.702-0.537 1.158-0.192 0.981-0.192 1.577v0.383c0 0.468 0.064 0.908 0.192 1.322 0.133 0.407 0.325 0.766 0.573 1.076 0.256 0.31 0.563 0.553 0.921 0.729 0.364 0.176 0.777 0.264 1.24 0.264 0.595 0 1.099-0.122 1.512-0.365s0.775-0.568 1.085-0.975l1.020 0.811c-0.212 0.322-0.483 0.629-0.811 0.921s-0.732 0.529-1.212 0.711c-0.475 0.182-1.036 0.273-1.687 0.273z"></path>
<path fill="#2196f3" style="fill: var(--color3, #2196f3)" d="M366.589 9.396v13.271h-1.732v-13.271h1.732zM370.855 9.396v1.44h-10.255v-1.44h10.255zM376.309 22.849c-0.687 0-1.309-0.115-1.869-0.346-0.552-0.237-1.029-0.568-1.431-0.994-0.395-0.425-0.699-0.93-0.912-1.513-0.212-0.583-0.319-1.221-0.319-1.914v-0.383c0-0.802 0.119-1.516 0.356-2.142 0.237-0.632 0.559-1.167 0.965-1.604 0.408-0.437 0.869-0.769 1.385-0.993 0.517-0.225 1.052-0.337 1.605-0.337 0.704 0 1.312 0.122 1.823 0.365 0.516 0.243 0.939 0.583 1.267 1.021 0.328 0.431 0.571 0.942 0.729 1.531 0.157 0.583 0.237 1.221 0.237 1.914v0.757h-7.365v-1.376h5.679v-0.128c-0.024-0.437-0.116-0.863-0.273-1.276-0.152-0.413-0.395-0.753-0.729-1.021s-0.789-0.401-1.367-0.401c-0.384 0-0.736 0.082-1.057 0.246-0.323 0.158-0.599 0.395-0.829 0.711-0.232 0.316-0.411 0.702-0.539 1.158-0.127 0.456-0.191 0.981-0.191 1.577v0.383c0 0.468 0.064 0.908 0.191 1.322 0.133 0.407 0.325 0.766 0.575 1.076 0.255 0.31 0.561 0.553 0.92 0.729 0.365 0.176 0.779 0.264 1.24 0.264 0.596 0 1.1-0.122 1.513-0.365s0.775-0.568 1.084-0.975l1.021 0.811c-0.213 0.322-0.483 0.629-0.812 0.921-0.328 0.292-0.732 0.529-1.212 0.711-0.473 0.182-1.036 0.273-1.685 0.273zM384.361 14.354v8.313h-1.687v-9.862h1.641l0.045 1.549zM387.441 12.75l-0.009 1.568c-0.139-0.030-0.273-0.049-0.4-0.055-0.121-0.012-0.261-0.018-0.42-0.018-0.388 0-0.732 0.061-1.029 0.182-0.299 0.122-0.551 0.292-0.757 0.51s-0.371 0.48-0.492 0.784c-0.115 0.298-0.191 0.626-0.228 0.984l-0.473 0.273c0-0.595 0.057-1.155 0.173-1.677 0.121-0.523 0.307-0.984 0.556-1.385 0.249-0.407 0.565-0.723 0.948-0.948 0.388-0.231 0.851-0.346 1.385-0.346 0.121 0 0.261 0.015 0.419 0.046 0.159 0.024 0.268 0.052 0.328 0.082zM391.237 14.764v7.902h-1.695v-9.862h1.604l0.091 1.96zM390.891 17.362l-0.784-0.027c0.007-0.675 0.095-1.297 0.265-1.869 0.169-0.577 0.421-1.079 0.756-1.504s0.751-0.754 1.249-0.984c0.497-0.237 1.075-0.355 1.731-0.355 0.463 0 0.888 0.067 1.276 0.201 0.389 0.128 0.727 0.331 1.012 0.611s0.508 0.638 0.665 1.075c0.159 0.438 0.237 0.966 0.237 1.586v6.572h-1.687v-6.49c0-0.517-0.088-0.93-0.264-1.24-0.169-0.31-0.413-0.535-0.729-0.674-0.316-0.146-0.687-0.219-1.112-0.219-0.497 0-0.915 0.088-1.248 0.264-0.335 0.176-0.601 0.419-0.803 0.729-0.2 0.31-0.347 0.665-0.437 1.066-0.085 0.395-0.128 0.814-0.128 1.258zM397.28 16.432l-1.129 0.346c0.005-0.541 0.093-1.060 0.264-1.559 0.176-0.498 0.428-0.942 0.756-1.331 0.335-0.389 0.745-0.696 1.231-0.921 0.487-0.231 1.043-0.346 1.668-0.346 0.529 0 0.997 0.070 1.404 0.21 0.413 0.14 0.76 0.355 1.039 0.647 0.285 0.286 0.501 0.653 0.648 1.103 0.145 0.45 0.219 0.984 0.219 1.604v6.481h-1.696v-6.499c0-0.553-0.088-0.981-0.264-1.285-0.171-0.31-0.413-0.526-0.729-0.647-0.309-0.128-0.68-0.191-1.112-0.191-0.371 0-0.699 0.064-0.984 0.191s-0.527 0.304-0.72 0.529c-0.195 0.219-0.344 0.471-0.447 0.757-0.097 0.286-0.147 0.589-0.147 0.911zM412.232 20.051c0-0.243-0.055-0.468-0.164-0.675-0.103-0.213-0.319-0.404-0.647-0.574-0.323-0.176-0.808-0.328-1.459-0.456-0.547-0.115-1.041-0.252-1.485-0.41-0.437-0.158-0.812-0.349-1.121-0.574-0.304-0.225-0.537-0.489-0.701-0.793s-0.247-0.659-0.247-1.066c0-0.389 0.085-0.757 0.255-1.103 0.177-0.346 0.423-0.653 0.739-0.921 0.323-0.267 0.708-0.477 1.157-0.629 0.451-0.152 0.952-0.228 1.504-0.228 0.791 0 1.465 0.14 2.024 0.419s0.987 0.653 1.285 1.121c0.297 0.462 0.447 0.975 0.447 1.54h-1.687c0-0.273-0.081-0.538-0.247-0.793-0.157-0.261-0.391-0.477-0.701-0.647-0.304-0.17-0.677-0.255-1.121-0.255-0.468 0-0.847 0.073-1.139 0.219-0.285 0.14-0.496 0.319-0.629 0.538-0.128 0.219-0.191 0.45-0.191 0.693 0 0.182 0.029 0.346 0.091 0.492 0.067 0.14 0.183 0.27 0.347 0.392 0.164 0.115 0.395 0.225 0.692 0.328 0.299 0.103 0.677 0.207 1.14 0.31 0.808 0.182 1.473 0.401 1.996 0.656s0.911 0.568 1.167 0.939c0.255 0.371 0.383 0.82 0.383 1.349 0 0.431-0.091 0.826-0.273 1.185-0.176 0.358-0.435 0.668-0.775 0.93-0.335 0.255-0.736 0.456-1.204 0.602-0.461 0.14-0.981 0.21-1.559 0.21-0.868 0-1.604-0.155-2.205-0.465s-1.057-0.711-1.367-1.203c-0.311-0.492-0.465-1.012-0.465-1.559h1.696c0.024 0.462 0.157 0.829 0.4 1.103 0.244 0.267 0.541 0.459 0.893 0.574 0.353 0.109 0.703 0.164 1.048 0.164 0.463 0 0.848-0.061 1.159-0.182 0.316-0.121 0.556-0.289 0.72-0.501s0.245-0.456 0.245-0.729zM427.699 20.981v-5.077c0-0.389-0.079-0.726-0.237-1.012-0.152-0.292-0.383-0.516-0.692-0.674-0.311-0.158-0.693-0.237-1.149-0.237-0.425 0-0.799 0.073-1.12 0.219-0.316 0.146-0.565 0.337-0.748 0.574-0.176 0.237-0.264 0.492-0.264 0.766h-1.687c0-0.352 0.092-0.702 0.273-1.048 0.183-0.346 0.444-0.659 0.784-0.939 0.347-0.286 0.76-0.51 1.24-0.675 0.485-0.17 1.027-0.255 1.623-0.255 0.716 0 1.348 0.122 1.895 0.365 0.553 0.243 0.985 0.611 1.295 1.103 0.316 0.486 0.475 1.097 0.475 1.832v4.594c0 0.328 0.027 0.678 0.081 1.048 0.061 0.371 0.149 0.69 0.264 0.957v0.146h-1.759c-0.085-0.194-0.152-0.453-0.2-0.775-0.049-0.328-0.073-0.632-0.073-0.911zM427.991 16.687l0.017 1.185h-1.704c-0.48 0-0.908 0.039-1.285 0.119-0.376 0.073-0.692 0.185-0.948 0.337-0.255 0.152-0.449 0.343-0.583 0.574-0.133 0.225-0.201 0.489-0.201 0.793 0 0.31 0.071 0.592 0.211 0.848 0.139 0.255 0.349 0.459 0.628 0.611 0.287 0.146 0.636 0.219 1.048 0.219 0.517 0 0.973-0.109 1.368-0.328s0.708-0.486 0.939-0.802c0.237-0.316 0.364-0.623 0.383-0.921l0.72 0.811c-0.043 0.255-0.157 0.538-0.347 0.848-0.188 0.31-0.44 0.608-0.756 0.893-0.309 0.279-0.68 0.513-1.112 0.702-0.425 0.182-0.905 0.273-1.44 0.273-0.668 0-1.255-0.131-1.759-0.392-0.499-0.261-0.888-0.611-1.167-1.048-0.275-0.443-0.411-0.939-0.411-1.486 0-0.529 0.103-0.993 0.309-1.395 0.207-0.407 0.505-0.744 0.893-1.012 0.389-0.273 0.857-0.48 1.404-0.62s1.157-0.21 1.832-0.21h1.96zM434.284 14.91v7.757h-1.687v-9.862h1.595l0.092 2.105zM433.883 17.362l-0.703-0.027c0.007-0.675 0.107-1.297 0.301-1.869 0.195-0.577 0.468-1.079 0.82-1.504 0.353-0.425 0.772-0.754 1.259-0.984 0.492-0.237 1.036-0.355 1.631-0.355 0.487 0 0.924 0.067 1.313 0.201 0.388 0.128 0.72 0.334 0.993 0.62 0.279 0.286 0.492 0.656 0.637 1.112 0.147 0.45 0.219 1 0.219 1.65v6.462h-1.695v-6.481c0-0.516-0.076-0.93-0.228-1.239-0.152-0.316-0.373-0.544-0.665-0.684-0.292-0.146-0.651-0.219-1.076-0.219-0.419 0-0.801 0.088-1.148 0.264-0.34 0.176-0.635 0.419-0.884 0.729-0.243 0.31-0.435 0.665-0.575 1.066-0.133 0.395-0.2 0.814-0.2 1.258zM449.691 20.753v-12.086h1.696v14h-1.549l-0.147-1.914zM443.056 17.845v-0.191c0-0.753 0.091-1.437 0.273-2.051 0.188-0.62 0.452-1.151 0.793-1.595 0.345-0.444 0.756-0.784 1.229-1.021 0.48-0.243 1.015-0.365 1.605-0.365 0.619 0 1.16 0.109 1.621 0.328 0.468 0.213 0.863 0.526 1.185 0.939 0.328 0.407 0.587 0.899 0.775 1.477s0.319 1.231 0.392 1.96v0.839c-0.067 0.723-0.197 1.373-0.392 1.951-0.188 0.577-0.447 1.069-0.775 1.477-0.323 0.407-0.717 0.72-1.185 0.939-0.468 0.213-1.015 0.319-1.64 0.319-0.577 0-1.107-0.125-1.587-0.374-0.473-0.249-0.884-0.598-1.229-1.048-0.341-0.45-0.605-0.978-0.793-1.586-0.183-0.614-0.273-1.279-0.273-1.996zM444.751 17.654v0.191c0 0.492 0.049 0.954 0.147 1.385 0.103 0.431 0.261 0.811 0.473 1.139 0.213 0.328 0.483 0.586 0.811 0.775 0.329 0.182 0.721 0.273 1.176 0.273 0.56 0 1.019-0.119 1.377-0.355 0.364-0.237 0.656-0.55 0.875-0.939s0.388-0.811 0.511-1.267v-2.197c-0.073-0.334-0.18-0.656-0.32-0.966-0.133-0.316-0.309-0.595-0.528-0.839-0.213-0.249-0.477-0.447-0.793-0.592-0.309-0.146-0.677-0.219-1.103-0.219-0.461 0-0.86 0.097-1.195 0.292-0.328 0.188-0.597 0.45-0.811 0.784-0.212 0.328-0.371 0.711-0.473 1.149-0.097 0.431-0.147 0.893-0.147 1.385zM468.028 18.447h1.751c-0.091 0.839-0.331 1.589-0.72 2.251s-0.939 1.188-1.649 1.577c-0.712 0.383-1.599 0.574-2.663 0.574-0.777 0-1.485-0.146-2.123-0.437-0.632-0.292-1.176-0.705-1.632-1.24-0.456-0.541-0.808-1.188-1.057-1.941-0.243-0.76-0.364-1.604-0.364-2.534v-1.322c0-0.93 0.121-1.771 0.364-2.525 0.249-0.76 0.605-1.41 1.067-1.951 0.468-0.541 1.029-0.957 1.687-1.249 0.656-0.292 1.393-0.438 2.215-0.438 1.003 0 1.849 0.188 2.543 0.565 0.692 0.377 1.231 0.899 1.613 1.568 0.389 0.662 0.629 1.431 0.72 2.306h-1.751c-0.084-0.62-0.243-1.152-0.473-1.595-0.231-0.45-0.559-0.796-0.984-1.039s-0.981-0.365-1.668-0.365c-0.589 0-1.109 0.112-1.559 0.337-0.444 0.225-0.817 0.544-1.121 0.957-0.297 0.413-0.523 0.908-0.675 1.486s-0.228 1.218-0.228 1.923v1.34c0 0.65 0.067 1.261 0.201 1.832 0.139 0.571 0.349 1.072 0.628 1.504 0.28 0.431 0.635 0.772 1.067 1.021 0.432 0.243 0.941 0.365 1.531 0.365 0.748 0 1.344-0.119 1.787-0.355 0.444-0.237 0.779-0.577 1.003-1.021 0.231-0.443 0.395-0.975 0.492-1.595zM472.033 17.845v-0.21c0-0.711 0.104-1.37 0.311-1.978 0.207-0.614 0.504-1.145 0.893-1.595 0.388-0.456 0.86-0.808 1.412-1.057 0.553-0.255 1.173-0.383 1.86-0.383 0.692 0 1.315 0.128 1.868 0.383 0.559 0.249 1.033 0.602 1.423 1.057 0.395 0.45 0.695 0.981 0.901 1.595 0.207 0.608 0.311 1.267 0.311 1.978v0.21c0 0.711-0.104 1.37-0.311 1.978s-0.507 1.139-0.901 1.595c-0.389 0.45-0.86 0.802-1.413 1.057-0.547 0.249-1.167 0.374-1.859 0.374-0.693 0-1.316-0.125-1.869-0.374-0.553-0.255-1.027-0.608-1.421-1.057-0.389-0.456-0.687-0.987-0.893-1.595s-0.311-1.267-0.311-1.978zM473.72 17.635v0.21c0 0.492 0.057 0.957 0.173 1.395 0.116 0.431 0.288 0.814 0.52 1.148 0.236 0.334 0.531 0.599 0.884 0.793 0.352 0.188 0.763 0.283 1.231 0.283 0.461 0 0.865-0.094 1.212-0.283 0.352-0.194 0.644-0.459 0.875-0.793s0.404-0.717 0.52-1.148c0.121-0.437 0.181-0.902 0.181-1.395v-0.21c0-0.486-0.060-0.945-0.181-1.376-0.116-0.437-0.292-0.823-0.529-1.157-0.231-0.34-0.523-0.608-0.875-0.802-0.347-0.194-0.753-0.292-1.221-0.292-0.463 0-0.869 0.097-1.221 0.292-0.347 0.194-0.639 0.462-0.875 0.802-0.232 0.334-0.404 0.72-0.52 1.157-0.116 0.431-0.173 0.89-0.173 1.376zM485.372 14.91v7.757h-1.685v-9.862h1.595l0.091 2.105zM484.972 17.362l-0.703-0.027c0.007-0.675 0.107-1.297 0.301-1.869 0.195-0.577 0.468-1.079 0.82-1.504s0.772-0.754 1.257-0.984c0.493-0.237 1.036-0.355 1.632-0.355 0.487 0 0.924 0.067 1.312 0.201 0.389 0.128 0.72 0.334 0.995 0.62 0.279 0.286 0.492 0.656 0.637 1.112 0.145 0.45 0.219 1 0.219 1.65v6.462h-1.695v-6.481c0-0.516-0.076-0.93-0.228-1.239-0.152-0.316-0.375-0.544-0.665-0.684-0.292-0.146-0.651-0.219-1.076-0.219-0.419 0-0.801 0.088-1.148 0.264-0.34 0.176-0.635 0.419-0.884 0.729-0.244 0.31-0.435 0.665-0.575 1.066-0.133 0.395-0.2 0.814-0.2 1.258zM500.78 20.753v-12.086h1.696v14h-1.551l-0.145-1.914zM494.145 17.845v-0.191c0-0.753 0.091-1.437 0.273-2.051 0.188-0.62 0.452-1.151 0.792-1.595 0.347-0.444 0.757-0.784 1.231-1.021 0.48-0.243 1.015-0.365 1.604-0.365 0.62 0 1.161 0.109 1.623 0.328 0.468 0.213 0.863 0.526 1.185 0.939 0.328 0.407 0.587 0.899 0.775 1.477s0.319 1.231 0.392 1.96v0.839c-0.067 0.723-0.197 1.373-0.392 1.951-0.188 0.577-0.447 1.069-0.775 1.477-0.323 0.407-0.717 0.72-1.185 0.939-0.468 0.213-1.015 0.319-1.64 0.319-0.577 0-1.107-0.125-1.587-0.374-0.473-0.249-0.884-0.598-1.231-1.048-0.34-0.45-0.604-0.978-0.792-1.586-0.183-0.614-0.273-1.279-0.273-1.996zM495.84 17.654v0.191c0 0.492 0.048 0.954 0.145 1.385 0.104 0.431 0.261 0.811 0.475 1.139 0.212 0.328 0.483 0.586 0.811 0.775 0.328 0.182 0.72 0.273 1.176 0.273 0.559 0 1.017-0.119 1.376-0.355 0.365-0.237 0.657-0.55 0.876-0.939s0.388-0.811 0.509-1.267v-2.197c-0.072-0.334-0.179-0.656-0.319-0.966-0.133-0.316-0.309-0.595-0.528-0.839-0.213-0.249-0.477-0.447-0.793-0.592-0.309-0.146-0.677-0.219-1.103-0.219-0.463 0-0.86 0.097-1.195 0.292-0.328 0.188-0.599 0.45-0.811 0.784-0.213 0.328-0.371 0.711-0.475 1.149-0.097 0.431-0.145 0.893-0.145 1.385zM507.492 12.805v9.862h-1.695v-9.862h1.695zM505.669 10.189c0-0.273 0.083-0.504 0.247-0.693 0.169-0.188 0.419-0.283 0.747-0.283 0.323 0 0.568 0.094 0.739 0.283 0.176 0.188 0.264 0.419 0.264 0.693 0 0.261-0.088 0.486-0.264 0.674-0.171 0.182-0.416 0.273-0.739 0.273-0.328 0-0.577-0.091-0.747-0.273-0.164-0.188-0.247-0.413-0.247-0.674zM514.888 12.805v1.294h-5.332v-1.294h5.332zM511.361 10.408h1.685v9.816c0 0.334 0.052 0.586 0.156 0.757 0.103 0.17 0.236 0.283 0.4 0.337 0.165 0.055 0.341 0.082 0.529 0.082 0.14 0 0.285-0.012 0.437-0.036 0.159-0.030 0.276-0.055 0.356-0.073l0.009 1.376c-0.135 0.043-0.311 0.082-0.529 0.119-0.212 0.043-0.471 0.064-0.775 0.064-0.413 0-0.793-0.082-1.14-0.246-0.345-0.164-0.623-0.437-0.829-0.82-0.2-0.389-0.3-0.911-0.3-1.568v-9.807zM519.259 12.805v9.862h-1.696v-9.862h1.696zM517.436 10.189c0-0.273 0.081-0.504 0.245-0.693 0.171-0.188 0.42-0.283 0.748-0.283 0.321 0 0.568 0.094 0.737 0.283 0.177 0.188 0.265 0.419 0.265 0.693 0 0.261-0.088 0.486-0.265 0.674-0.169 0.182-0.416 0.273-0.737 0.273-0.328 0-0.577-0.091-0.748-0.273-0.164-0.188-0.245-0.413-0.245-0.674zM522.079 17.845v-0.21c0-0.711 0.104-1.37 0.309-1.978 0.207-0.614 0.505-1.145 0.893-1.595 0.389-0.456 0.86-0.808 1.413-1.057 0.553-0.255 1.173-0.383 1.859-0.383 0.693 0 1.316 0.128 1.869 0.383 0.559 0.249 1.033 0.602 1.421 1.057 0.395 0.45 0.696 0.981 0.903 1.595 0.207 0.608 0.309 1.267 0.309 1.978v0.21c0 0.711-0.103 1.37-0.309 1.978s-0.508 1.139-0.903 1.595c-0.388 0.45-0.86 0.802-1.412 1.057-0.547 0.249-1.167 0.374-1.86 0.374-0.692 0-1.315-0.125-1.868-0.374-0.553-0.255-1.027-0.608-1.423-1.057-0.388-0.456-0.687-0.987-0.893-1.595-0.205-0.608-0.309-1.267-0.309-1.978zM523.765 17.635v0.21c0 0.492 0.057 0.957 0.173 1.395 0.115 0.431 0.288 0.814 0.519 1.148 0.237 0.334 0.532 0.599 0.884 0.793 0.353 0.188 0.763 0.283 1.231 0.283 0.463 0 0.867-0.094 1.212-0.283 0.353-0.194 0.644-0.459 0.876-0.793 0.231-0.334 0.404-0.717 0.519-1.148 0.121-0.437 0.183-0.902 0.183-1.395v-0.21c0-0.486-0.061-0.945-0.183-1.376-0.115-0.437-0.292-0.823-0.528-1.157-0.231-0.34-0.523-0.608-0.875-0.802-0.347-0.194-0.755-0.292-1.223-0.292-0.461 0-0.868 0.097-1.221 0.292-0.345 0.194-0.637 0.462-0.875 0.802-0.231 0.334-0.404 0.72-0.519 1.157-0.116 0.431-0.173 0.89-0.173 1.376zM535.417 14.91v7.757h-1.687v-9.862h1.596l0.091 2.105zM535.016 17.362l-0.701-0.027c0.005-0.675 0.107-1.297 0.3-1.869 0.195-0.577 0.468-1.079 0.821-1.504 0.352-0.425 0.771-0.754 1.257-0.984 0.492-0.237 1.036-0.355 1.632-0.355 0.485 0 0.923 0.067 1.312 0.201 0.389 0.128 0.72 0.334 0.993 0.62 0.28 0.286 0.492 0.656 0.639 1.112 0.145 0.45 0.219 1 0.219 1.65v6.462h-1.696v-6.481c0-0.516-0.076-0.93-0.228-1.239-0.152-0.316-0.373-0.544-0.665-0.684-0.291-0.146-0.649-0.219-1.075-0.219-0.42 0-0.803 0.088-1.149 0.264-0.34 0.176-0.635 0.419-0.884 0.729-0.243 0.31-0.435 0.665-0.573 1.066-0.135 0.395-0.201 0.814-0.201 1.258zM550.351 20.051c0-0.243-0.055-0.468-0.164-0.675-0.103-0.213-0.319-0.404-0.647-0.574-0.323-0.176-0.808-0.328-1.459-0.456-0.547-0.115-1.041-0.252-1.485-0.41-0.437-0.158-0.811-0.349-1.121-0.574-0.304-0.225-0.537-0.489-0.701-0.793s-0.247-0.659-0.247-1.066c0-0.389 0.085-0.757 0.256-1.103 0.176-0.346 0.421-0.653 0.737-0.921 0.323-0.267 0.708-0.477 1.157-0.629 0.451-0.152 0.952-0.228 1.504-0.228 0.791 0 1.465 0.14 2.024 0.419s0.987 0.653 1.285 1.121c0.297 0.462 0.447 0.975 0.447 1.54h-1.687c0-0.273-0.081-0.538-0.245-0.793-0.159-0.261-0.392-0.477-0.703-0.647-0.304-0.17-0.677-0.255-1.121-0.255-0.468 0-0.847 0.073-1.139 0.219-0.285 0.14-0.496 0.319-0.629 0.538-0.128 0.219-0.191 0.45-0.191 0.693 0 0.182 0.029 0.346 0.091 0.492 0.067 0.14 0.183 0.27 0.347 0.392 0.164 0.115 0.395 0.225 0.692 0.328 0.299 0.103 0.677 0.207 1.14 0.31 0.808 0.182 1.473 0.401 1.996 0.656s0.911 0.568 1.167 0.939c0.255 0.371 0.383 0.82 0.383 1.349 0 0.431-0.091 0.826-0.273 1.185-0.176 0.358-0.435 0.668-0.775 0.93-0.335 0.255-0.736 0.456-1.204 0.602-0.461 0.14-0.981 0.21-1.557 0.21-0.869 0-1.605-0.155-2.207-0.465s-1.057-0.711-1.367-1.203c-0.311-0.492-0.465-1.012-0.465-1.559h1.696c0.024 0.462 0.157 0.829 0.4 1.103 0.244 0.267 0.541 0.459 0.893 0.574 0.353 0.109 0.703 0.164 1.049 0.164 0.461 0 0.847-0.061 1.157-0.182 0.316-0.121 0.556-0.289 0.72-0.501s0.245-0.456 0.245-0.729z"></path>
<path fill="#2196f3" style="fill: var(--color3, #2196f3)" d="M360.145 24.49h192.812v0.911h-192.812v-0.911z"></path>
</symbol>
<symbol id="icon-close-black" viewBox="0 0 32 32">
<path d="M26.667 7.303l-1.97-1.97-7.808 7.808-7.808-7.808-1.97 1.97 7.808 7.808-7.808 7.808 1.97 1.97 7.808-7.808 7.808 7.808 1.97-1.97-7.808-7.808 7.808-7.808z"></path>
</symbol><symbol id="icon-burger" viewBox="0 0 48 32">
<path d="M0 5.333v-5.333h48v5.333h-48zM0 18.667h48v-5.333h-48v5.333zM0 32h48v-5.333h-48v5.333z"></path>
</symbol>
<symbol id="icon-close" viewBox="0 0 32 32">
<path d="M23.733 10.304l-1.504-1.504-5.963 5.963-5.963-5.963-1.504 1.504 5.963 5.963-5.963 5.963 1.504 1.504 5.963-5.963 5.963 5.963 1.504-1.504-5.963-5.963 5.963-5.963z"></path>
</symbol>
<symbol id="icon-close_40px" viewBox="0 0 32 32">
<path d="M23.733 10.304l-1.504-1.504-5.963 5.963-5.963-5.963-1.504 1.504 5.963 5.963-5.963 5.963 1.504 1.504 5.963-5.963 5.963 5.963 1.504-1.504-5.963-5.963 5.963-5.963z"></path>
</symbol>
<symbol id="icon-menu_40px" viewBox="0 0 32 32">
<path d="M6.4 11.733v-2.133h19.2v2.133h-19.2zM6.4 17.067h19.2v-2.133h-19.2v2.133zM6.4 22.4h19.2v-2.133h-19.2v2.133z"></path>
</symbol>
<symbol id="icon-menu-2" viewBox="0 0 32 32">
<path d="M2 6h28v6h-28zM2 14h28v6h-28zM2 22h28v6h-28z"></path>
</symbol>
<symbol id="icon-cross-2" viewBox="0 0 32 32">
<path d="M31.708 25.708c-0-0-0-0-0-0l-9.708-9.708 9.708-9.708c0-0 0-0 0-0 0.105-0.105 0.18-0.227 0.229-0.357 0.133-0.356 0.057-0.771-0.229-1.057l-4.586-4.586c-0.286-0.286-0.702-0.361-1.057-0.229-0.13 0.048-0.252 0.124-0.357 0.228 0 0-0 0-0 0l-9.708 9.708-9.708-9.708c-0-0-0-0-0-0-0.105-0.104-0.227-0.18-0.357-0.228-0.356-0.133-0.771-0.057-1.057 0.229l-4.586 4.586c-0.286 0.286-0.361 0.702-0.229 1.057 0.049 0.13 0.124 0.252 0.229 0.357 0 0 0 0 0 0l9.708 9.708-9.708 9.708c-0 0-0 0-0 0-0.104 0.105-0.18 0.227-0.229 0.357-0.133 0.355-0.057 0.771 0.229 1.057l4.586 4.586c0.286 0.286 0.702 0.361 1.057 0.229 0.13-0.049 0.252-0.124 0.357-0.229 0-0 0-0 0-0l9.708-9.708 9.708 9.708c0 0 0 0 0 0 0.105 0.105 0.227 0.18 0.357 0.229 0.356 0.133 0.771 0.057 1.057-0.229l4.586-4.586c0.286-0.286 0.362-0.702 0.229-1.057-0.049-0.13-0.124-0.252-0.229-0.357z"></path>
</symbol>

</defs>
</svg>